<svg viewBox="0 0 512 512" version="1.1" xmlns="http://www.w3.org/2000/svg">
    <path fill="rgb(0,0,0)" stroke="rgb(0,0,0)" stroke-width="1" opacity="0"
        d="M 0 0 L 512 0 L 512 512 L 0 512 L 0 0 Z M 175 5 L 174 6 L 165 6 L 154 9 L 139 18 Q 122 30 118 55 L 118 395 L 122 410 L 133 427 Q 145 440 168 444 L 408 444 Q 425 441 436 432 Q 451 420 456 398 L 456 52 Q 452 33 441 23 L 426 11 L 411 6 L 401 6 L 400 5 L 175 5 Z M 93 71 L 77 80 Q 61 92 56 115 L 56 403 L 60 422 L 65 436 Q 73 452 84 466 Q 101 485 127 497 L 148 504 L 159 506 L 170 506 L 171 507 L 340 507 L 341 506 L 349 506 L 359 503 L 374 494 Q 386 484 391 468 L 166 468 L 144 462 Q 132 457 123 449 Q 112 440 105 429 L 98 414 L 94 396 L 94 72 L 93 71 Z " />
    <path fill="rgb(0,0,0)" stroke="rgb(0,0,0)" stroke-width="1" opacity="0"
        d="M 171.5 44 L 402.5 44 L 413 49 L 418 59.5 L 418 390.5 Q 416.1 398.2 410.5 402 L 404.5 405 L 169.5 405 L 159 396.5 L 157 392.5 L 157 57.5 Q 159.3 50.8 164.5 47 L 171.5 44 Z " />
    <path fill="rgb(255,255,255)" stroke="rgb(255,255,255)" stroke-width="1" opacity="1"
        d="M 174.5 5 L 399.5 5 L 400.5 6 L 410.5 6 L 425.5 11 L 441 22.5 Q 452.2 33.3 456 51.5 L 456 397.5 Q 451.1 420.1 435.5 432 Q 424.7 441.2 407.5 444 L 167.5 444 Q 145.4 440.1 133 426.5 L 122 409.5 L 118 394.5 L 118 54.5 Q 122.1 30.1 138.5 18 L 153.5 9 L 164.5 6 L 173.5 6 L 174.5 5 Z M 172 44 L 165 47 Q 159 51 157 58 L 157 393 L 159 397 L 170 405 L 405 405 L 411 402 Q 416 398 418 391 L 418 60 L 413 49 L 403 44 L 172 44 Z " />
    <path fill="rgb(255,255,255)" stroke="rgb(255,255,255)" stroke-width="1" opacity="1"
        d="M 92.5 71 L 94 71.5 L 94 395.5 L 98 413.5 L 105 428.5 Q 112.3 440.3 122.5 449 Q 131.5 457 143.5 462 L 165.5 468 L 391 468 Q 385.9 484.3 373.5 494 L 358.5 503 L 348.5 506 L 340.5 506 L 339.5 507 L 170.5 507 L 169.5 506 L 158.5 506 L 147.5 504 L 126.5 497 Q 101.1 485.4 84 465.5 Q 72.7 452.3 65 435.5 L 60 421.5 L 56 402.5 L 56 114.5 Q 60.9 91.9 76.5 80 L 92.5 71 Z " />
</svg>