<svg viewBox="0 0 64 64" version="1.1" xmlns="http://www.w3.org/2000/svg">
    <path fill="rgb(0,0,0)" stroke="rgb(0,0,0)" stroke-width="1" opacity="0"
        d="M 0 0 L 29 0.5 L 14 10 Q 15.1 12.7 12.5 12 L 0.5 20 L 0 0 Z " />
    <path fill="rgb(0,0,0)" stroke="rgb(0,0,0)" stroke-width="1" opacity="0"
        d="M 35.5 0 L 64 0 L 64 19.5 L 62.5 19 L 50 12 Q 51.1 9.3 48.5 10 L 36.5 2 L 35.5 0 Z " />
    <path fill="rgb(0,0,0)" stroke="rgb(0,0,0)" stroke-width="1" opacity="0"
        d="M 28.5 8 L 29 21 L 17.5 28 L 9 22.5 Q 8.3 20.3 10.5 21 L 25 12 Q 23.9 9.3 26.5 10 L 28.5 8 Z " />
    <path fill="rgb(0,0,0)" stroke="rgb(0,0,0)" stroke-width="1" opacity="0"
        d="M 35.5 8 L 39 10 Q 37.9 12.7 40.5 12 L 55 21 L 53.5 24 L 46.5 28 L 35 21 L 35.5 8 Z " />
    <path fill="rgb(0,0,0)" stroke="rgb(0,0,0)" stroke-width="1" opacity="0"
        d="M 31.5 26 L 41 31 Q 42.1 33.7 39.5 33 L 31.5 38 L 23 33 Q 21.9 30.3 24.5 31 L 31.5 26 Z " />
    <path fill="rgb(0,0,0)" stroke="rgb(0,0,0)" stroke-width="1" opacity="0"
        d="M 6.5 28 L 12 31 Q 13.1 33.7 10.5 33 L 6.5 36 L 6.5 28 Z " />
    <path fill="rgb(0,0,0)" stroke="rgb(0,0,0)" stroke-width="1" opacity="0"
        d="M 57.5 28 L 58 35.5 L 55.5 34 L 52 33 Q 50.9 30.3 53.5 31 L 57.5 28 Z " />
    <path fill="rgb(0,0,0)" stroke="rgb(0,0,0)" stroke-width="1" opacity="0"
        d="M 17.5 36 L 29 43 L 28.5 56 L 25 54 Q 26.1 51.3 23.5 52 L 9 43 L 10.5 40 L 17.5 36 Z " />
    <path fill="rgb(0,0,0)" stroke="rgb(0,0,0)" stroke-width="1" opacity="0"
        d="M 46.5 36 L 55 41.5 Q 55.8 43.8 53.5 43 L 39 52 Q 40.1 54.7 37.5 54 L 35 55.5 L 35 43.5 L 36.5 43 L 46.5 36 Z " />
    <path fill="rgb(0,0,0)" stroke="rgb(0,0,0)" stroke-width="1" opacity="0"
        d="M 0.5 44 L 14 52 Q 12.9 54.7 15.5 54 L 29 63.5 L 0 64 L 0.5 44 Z " />
    <path fill="rgb(0,0,0)" stroke="rgb(0,0,0)" stroke-width="1" opacity="0"
        d="M 63.5 44 L 64 64 L 35 63.5 L 50 54 Q 48.9 51.3 51.5 52 L 63.5 44 Z " />
    <path fill="#e0e0e0" stroke="#e0e0e0" stroke-width="1"
        opacity="0.9529411764705882" d="M 12.5 12 L 11.5 14 L 12.5 12 Z " />
    <path fill="#e0e0e0" stroke="#e0e0e0" stroke-width="1"
        opacity="0.9529411764705882" d="M 51.5 12 L 52.5 14 L 51.5 12 Z " />
    <path fill="#e0e0e0" stroke="#e0e0e0" stroke-width="1"
        opacity="0.9529411764705882" d="M 6.5 27 L 7.5 29 L 6.5 27 Z " />
    <path fill="#e0e0e0" stroke="#e0e0e0" stroke-width="1"
        opacity="0.9529411764705882" d="M 57.5 27 L 56.5 29 L 57.5 27 Z " />
    <path fill="#e0e0e0" stroke="#e0e0e0" stroke-width="1"
        opacity="0.9529411764705882" d="M 9.5 29 L 10.5 31 L 9.5 29 Z " />
    <path fill="#e0e0e0" stroke="#e0e0e0" stroke-width="1"
        opacity="0.9529411764705882" d="M 54.5 29 L 53.5 31 L 54.5 29 Z " />
    <path fill="#e0e0e0" stroke="#e0e0e0" stroke-width="1"
        opacity="0.9529411764705882" d="M 23.5 30 L 23 31.5 L 24 33.5 L 22 32.5 L 23.5 30 Z " />
    <path fill="#e0e0e0" stroke="#e0e0e0" stroke-width="1"
        opacity="0.9529411764705882" d="M 40.5 30 L 42 32.5 L 40 33.5 L 41 31.5 L 40.5 30 Z " />
    <path fill="#e0e0e0" stroke="#e0e0e0" stroke-width="1"
        opacity="0.9529411764705882" d="M 10.5 33 L 9.5 35 L 10.5 33 Z " />
    <path fill="#e0e0e0" stroke="#e0e0e0" stroke-width="1"
        opacity="0.9529411764705882" d="M 53.5 33 L 54.5 35 L 53.5 33 Z " />
    <path fill="#e0e0e0" stroke="#e0e0e0" stroke-width="1"
        opacity="0.9529411764705882" d="M 7.5 35 L 6.5 37 L 7.5 35 Z " />
    <path fill="#e0e0e0" stroke="#e0e0e0" stroke-width="1"
        opacity="0.9529411764705882" d="M 56.5 35 L 57.5 37 L 56.5 35 Z " />
    <path fill="#e0e0e0" stroke="#e0e0e0" stroke-width="1"
        opacity="0.9529411764705882" d="M 11.5 50 L 12.5 52 L 11.5 50 Z " />
    <path fill="#e0e0e0" stroke="#e0e0e0" stroke-width="1"
        opacity="0.9529411764705882" d="M 52.5 50 L 51.5 52 L 52.5 50 Z " />
    <path fill="#e0e0e0" stroke="#e0e0e0" stroke-width="1"
        opacity="0.08235294117647059" d="M 29.5 0 L 28.5 2 L 29.5 0 Z " />
    <path fill="#e0e0e0" stroke="#e0e0e0" stroke-width="1"
        opacity="0.08235294117647059" d="M 34.5 0 L 35.5 2 L 34.5 0 Z " />
    <path fill="#e0e0e0" stroke="#e0e0e0" stroke-width="1"
        opacity="0.08235294117647059" d="M 26.5 2 L 25.5 4 L 26.5 2 Z " />
    <path fill="#e0e0e0" stroke="#e0e0e0" stroke-width="1"
        opacity="0.08235294117647059" d="M 37.5 2 L 38.5 4 L 37.5 2 Z " />
    <path fill="#e0e0e0" stroke="#e0e0e0" stroke-width="1"
        opacity="0.08235294117647059" d="M 23.5 4 L 22.5 6 L 23.5 4 Z " />
    <path fill="#e0e0e0" stroke="#e0e0e0" stroke-width="1"
        opacity="0.08235294117647059" d="M 40.5 4 L 41.5 6 L 40.5 4 Z " />
    <path fill="#e0e0e0" stroke="#e0e0e0" stroke-width="1"
        opacity="0.08235294117647059" d="M 20.5 6 L 19.5 8 L 20.5 6 Z " />
    <path fill="#e0e0e0" stroke="#e0e0e0" stroke-width="1"
        opacity="0.08235294117647059" d="M 43.5 6 L 44.5 8 L 43.5 6 Z " />
    <path fill="#e0e0e0" stroke="#e0e0e0" stroke-width="1"
        opacity="0.08235294117647059" d="M 17.5 8 L 16.5 10 L 17.5 8 Z " />
    <path fill="#e0e0e0" stroke="#e0e0e0" stroke-width="1"
        opacity="0.08235294117647059" d="M 46.5 8 L 47.5 10 L 46.5 8 Z " />
    <path fill="#e0e0e0" stroke="#e0e0e0" stroke-width="1"
        opacity="0.08235294117647059" d="M 22.5 12 L 21.5 14 L 22.5 12 Z " />
    <path fill="#e0e0e0" stroke="#e0e0e0" stroke-width="1"
        opacity="0.08235294117647059" d="M 41.5 12 L 42.5 14 L 41.5 12 Z " />
    <path fill="#e0e0e0" stroke="#e0e0e0" stroke-width="1"
        opacity="0.08235294117647059" d="M 19.5 14 L 18.5 16 L 19.5 14 Z " />
    <path fill="#e0e0e0" stroke="#e0e0e0" stroke-width="1"
        opacity="0.08235294117647059" d="M 44.5 14 L 45.5 16 L 44.5 14 Z " />
    <path fill="#e0e0e0" stroke="#e0e0e0" stroke-width="1"
        opacity="0.08235294117647059" d="M 16.5 16 L 15.5 18 L 16.5 16 Z " />
    <path fill="#e0e0e0" stroke="#e0e0e0" stroke-width="1"
        opacity="0.08235294117647059" d="M 47.5 16 L 48.5 18 L 47.5 16 Z " />
    <path fill="#e0e0e0" stroke="#e0e0e0" stroke-width="1"
        opacity="0.08235294117647059" d="M 13.5 25 L 14.5 27 L 13.5 25 Z " />
    <path fill="#e0e0e0" stroke="#e0e0e0" stroke-width="1"
        opacity="0.08235294117647059" d="M 21.5 25 L 20.5 27 L 21.5 25 Z " />
    <path fill="#e0e0e0" stroke="#e0e0e0" stroke-width="1"
        opacity="0.08235294117647059" d="M 42.5 25 L 43.5 27 L 42.5 25 Z " />
    <path fill="#e0e0e0" stroke="#e0e0e0" stroke-width="1"
        opacity="0.08235294117647059" d="M 50.5 25 L 49.5 27 L 50.5 25 Z " />
    <path fill="#e0e0e0" stroke="#e0e0e0" stroke-width="1"
        opacity="0.08235294117647059" d="M 16.5 27 L 19 27.5 Q 16.9 30.8 16.5 27 Z " />
    <path fill="#e0e0e0" stroke="#e0e0e0" stroke-width="1"
        opacity="0.08235294117647059" d="M 45.5 27 L 48 27.5 Q 45.9 30.8 45.5 27 Z " />
    <path fill="#e0e0e0" stroke="#e0e0e0" stroke-width="1"
        opacity="0.08235294117647059" d="M 5.5 28 L 6 35.5 L 5 35.5 L 5.5 28 Z " />
    <path fill="#e0e0e0" stroke="#e0e0e0" stroke-width="1"
        opacity="0.08235294117647059" d="M 58.5 28 L 59 35.5 L 58 35.5 L 58.5 28 Z " />
    <path fill="#e0e0e0" stroke="#e0e0e0" stroke-width="1"
        opacity="0.08235294117647059" d="M 17.5 35 L 18.5 37 L 16 36.5 L 17.5 35 Z " />
    <path fill="#e0e0e0" stroke="#e0e0e0" stroke-width="1"
        opacity="0.08235294117647059" d="M 46.5 35 L 47.5 37 L 45 36.5 L 46.5 35 Z " />
    <path fill="#e0e0e0" stroke="#e0e0e0" stroke-width="1"
        opacity="0.08235294117647059" d="M 14.5 37 L 13.5 39 L 14.5 37 Z " />
    <path fill="#e0e0e0" stroke="#e0e0e0" stroke-width="1"
        opacity="0.08235294117647059" d="M 20.5 37 L 21.5 39 L 20.5 37 Z " />
    <path fill="#e0e0e0" stroke="#e0e0e0" stroke-width="1"
        opacity="0.08235294117647059" d="M 43.5 37 L 42.5 39 L 43.5 37 Z " />
    <path fill="#e0e0e0" stroke="#e0e0e0" stroke-width="1"
        opacity="0.08235294117647059" d="M 49.5 37 L 50.5 39 L 49.5 37 Z " />
    <path fill="#e0e0e0" stroke="#e0e0e0" stroke-width="1"
        opacity="0.08235294117647059" d="M 15.5 46 L 16.5 48 L 15.5 46 Z " />
    <path fill="#e0e0e0" stroke="#e0e0e0" stroke-width="1"
        opacity="0.08235294117647059" d="M 48.5 46 L 47.5 48 L 48.5 46 Z " />
    <path fill="#e0e0e0" stroke="#e0e0e0" stroke-width="1"
        opacity="0.08235294117647059" d="M 18.5 48 L 19.5 50 L 18.5 48 Z " />
    <path fill="#e0e0e0" stroke="#e0e0e0" stroke-width="1"
        opacity="0.08235294117647059" d="M 45.5 48 L 44.5 50 L 45.5 48 Z " />
    <path fill="#e0e0e0" stroke="#e0e0e0" stroke-width="1"
        opacity="0.08235294117647059" d="M 21.5 50 L 22.5 52 L 21.5 50 Z " />
    <path fill="#e0e0e0" stroke="#e0e0e0" stroke-width="1"
        opacity="0.08235294117647059" d="M 42.5 50 L 41.5 52 L 42.5 50 Z " />
    <path fill="#e0e0e0" stroke="#e0e0e0" stroke-width="1"
        opacity="0.08235294117647059" d="M 16.5 54 L 17.5 56 L 16.5 54 Z " />
    <path fill="#e0e0e0" stroke="#e0e0e0" stroke-width="1"
        opacity="0.08235294117647059" d="M 47.5 54 L 46.5 56 L 47.5 54 Z " />
    <path fill="#e0e0e0" stroke="#e0e0e0" stroke-width="1"
        opacity="0.08235294117647059" d="M 19.5 56 L 20.5 58 L 19.5 56 Z " />
    <path fill="#e0e0e0" stroke="#e0e0e0" stroke-width="1"
        opacity="0.08235294117647059" d="M 44.5 56 L 43.5 58 L 44.5 56 Z " />
    <path fill="#e0e0e0" stroke="#e0e0e0" stroke-width="1"
        opacity="0.08235294117647059" d="M 22.5 58 L 23.5 60 L 22.5 58 Z " />
    <path fill="#e0e0e0" stroke="#e0e0e0" stroke-width="1"
        opacity="0.08235294117647059" d="M 41.5 58 L 40.5 60 L 41.5 58 Z " />
    <path fill="#e0e0e0" stroke="#e0e0e0" stroke-width="1"
        opacity="0.08235294117647059" d="M 25.5 60 L 26.5 62 L 25.5 60 Z " />
    <path fill="#e0e0e0" stroke="#e0e0e0" stroke-width="1"
        opacity="0.08235294117647059" d="M 38.5 60 L 37.5 62 L 38.5 60 Z " />
    <path fill="#e0e0e0" stroke="#e0e0e0" stroke-width="1"
        opacity="0.08235294117647059" d="M 28.5 62 L 29.5 64 L 28.5 62 Z " />
    <path fill="#e0e0e0" stroke="#e0e0e0" stroke-width="1"
        opacity="0.08235294117647059" d="M 35.5 62 L 34.5 64 L 35.5 62 Z " />
    <path fill="#e0e0e0" stroke="#e0e0e0" stroke-width="1" opacity="1"
        d="M 31.5 0 L 64 21.5 L 64 42.5 L 62.5 44 L 31.5 64 L 0 42.5 L 0 21.5 L 1.5 20 L 31.5 0 Z M 28 8 L 7 23 L 18 29 L 29 22 L 29 9 L 28 8 Z M 35 8 L 35 22 L 47 29 L 57 23 L 35 8 Z M 32 25 L 24 30 L 22 33 L 32 39 L 41 34 L 42 32 L 32 25 Z M 5 27 L 5 37 L 10 35 L 12 32 L 5 27 Z M 58 27 L 55 29 L 52 33 L 59 37 L 59 28 L 58 27 Z M 18 35 L 7 42 L 28 56 L 29 56 L 29 42 L 18 35 Z M 47 35 L 37 42 L 35 43 L 35 56 L 57 42 L 47 35 Z " />
</svg>