<svg viewBox="0 0 64 64" version="1.1" xmlns="http://www.w3.org/2000/svg">
    <path fill="rgb(0,0,0)" stroke="rgb(0,0,0)" stroke-width="1" opacity="0"
        d="M 0 0 L 26 0.5 Q 14 2.5 8 10.5 L 6 13.5 L 1 21.5 L 0.5 25 L 0 0 Z " />
    <path fill="rgb(0,0,0)" stroke="rgb(0,0,0)" stroke-width="1" opacity="0"
        d="M 38.5 0 L 64 0 L 64 24.5 L 63 24.5 L 63 21.5 L 58 12 Q 55.3 13.1 56 10.5 L 48.5 4 L 38.5 1 L 38.5 0 Z " />
    <path fill="rgb(0,0,0)" stroke="rgb(0,0,0)" stroke-width="1" opacity="0"
        d="M 16.5 15 L 25.5 18 L 26.5 17 L 37.5 17 L 40.5 18 L 49 15 L 49 24.5 Q 52.9 27.1 52 34.5 L 47.5 44 Q 44.1 47.7 38 47 L 39 50.5 L 39 64 L 25 64 L 25 56 L 21.5 56 L 19.5 56 Q 14.8 56.8 14 53.5 L 14 51.5 L 10 47.5 L 11.5 47 L 16.5 53 L 22.5 54 L 25 53 L 27 47.5 Q 18.7 47.3 15 42.5 L 13 38.5 L 12 31.5 L 13 26.5 L 15 24.5 L 15 16.5 L 16.5 15 Z " />
    <path fill="rgb(0,0,0)" stroke="rgb(0,0,0)" stroke-width="1" opacity="0"
        d="M 0.5 42 L 1 45.5 L 6 55 L 10 57.5 L 11.5 60 L 18 63.5 L 0 64 L 0.5 42 Z " />
    <path fill="rgb(0,0,0)" stroke="rgb(0,0,0)" stroke-width="1" opacity="0"
        d="M 63.5 42 L 64 64 L 46 63.5 L 49 63 Q 47.9 60.3 50.5 61 L 54 58.5 L 56.5 55 Q 58.8 55.8 58 53.5 L 63 45.5 L 63.5 42 Z " />
    <path fill="#e0e0e0" stroke="#e0e0e0" stroke-width="1"
        opacity="0.9921568627450981" d="M 55.5 12 L 56.5 14 L 55.5 12 Z " />
    <path fill="#e0e0e0" stroke="#e0e0e0" stroke-width="1"
        opacity="0.9921568627450981" d="M 15.5 13 L 17 13.5 L 14.5 15 L 15.5 13 Z " />
    <path fill="#e0e0e0" stroke="#e0e0e0" stroke-width="1"
        opacity="0.9921568627450981" d="M 47.5 13 L 50 14.5 L 48.5 14 L 47.5 13 Z " />
    <path fill="#e0e0e0" stroke="#e0e0e0" stroke-width="1"
        opacity="0.9921568627450981" d="M 49.5 43 L 47.5 46 L 49.5 43 Z " />
    <path fill="#e0e0e0" stroke="#e0e0e0" stroke-width="1"
        opacity="0.9921568627450981" d="M 7.5 53 L 8.5 55 L 7.5 53 Z " />
    <path fill="#e0e0e0" stroke="#e0e0e0" stroke-width="1" opacity="1"
        d="M 27.5 1 Q 46.7 0.8 55 11.5 L 56.5 14 Q 58.8 13.3 58 15.5 L 63 25.5 Q 61.2 31.7 64 33.5 Q 61.2 35.3 63 41.5 L 59 50.5 L 51.5 59 L 41.5 64 L 40 62.5 L 40 49.5 L 39 48.5 Q 46.5 48 50 43.5 Q 54.7 38.7 53 27.5 L 50 23.5 L 50 14.5 L 48.5 13 L 38.5 17 L 37.5 16 L 26.5 16 L 24.5 17 L 15.5 13 L 14 14.5 L 14 23.5 L 11 28.5 L 11 36.5 Q 12.8 43.7 18.5 47 L 25 48.5 L 24 52 Q 17.5 53.3 15 49.5 L 12.5 46 Q 7.1 44.1 8 47.5 L 15.5 57 L 24 57 L 24 62.5 L 21.5 64 L 9 55.5 L 5 50.5 L 1 41.5 Q 2.8 35.3 0 33.5 Q 2.8 31.7 1 25.5 L 6 14 Q 8.7 15.1 8 12.5 L 16.5 5 L 27.5 1 Z " />
    <path fill="#e0e0e0" stroke="#e0e0e0" stroke-width="1"
        opacity="0.9254901960784314" d="M 11.5 28 L 12 30.5 L 11 30.5 L 11.5 28 Z " />
    <path fill="#e0e0e0" stroke="#e0e0e0" stroke-width="1"
        opacity="0.9254901960784314" d="M 11.5 33 L 12 35.5 L 11 35.5 L 11.5 33 Z " />
    <path fill="#e0e0e0" stroke="#e0e0e0" stroke-width="1"
        opacity="0.9254901960784314" d="M 19.5 52 L 23 52.5 L 19.5 53 L 19.5 52 Z " />
    <path fill="#e0e0e0" stroke="#e0e0e0" stroke-width="1"
        opacity="0.0784313725490196" d="M 26.5 0 L 30 0.5 L 26.5 1 L 26.5 0 Z " />
    <path fill="#e0e0e0" stroke="#e0e0e0" stroke-width="1"
        opacity="0.0784313725490196" d="M 34.5 0 L 38 0.5 L 34.5 1 L 34.5 0 Z " />
    <path fill="#e0e0e0" stroke="#e0e0e0" stroke-width="1"
        opacity="0.0784313725490196" d="M 15.5 4 L 13.5 7 L 15.5 4 Z " />
    <path fill="#e0e0e0" stroke="#e0e0e0" stroke-width="1"
        opacity="0.0784313725490196" d="M 48.5 4 L 50.5 7 L 48.5 4 Z " />
    <path fill="#e0e0e0" stroke="#e0e0e0" stroke-width="1"
        opacity="0.0784313725490196" d="M 11.5 7 L 8.5 11 L 11.5 7 Z " />
    <path fill="#e0e0e0" stroke="#e0e0e0" stroke-width="1"
        opacity="0.0784313725490196" d="M 52.5 7 L 55.5 11 L 52.5 7 Z " />
    <path fill="#e0e0e0" stroke="#e0e0e0" stroke-width="1"
        opacity="0.0784313725490196" d="M 15 14 L 17 14.5 L 15 15.5 L 15 14 Z " />
    <path fill="#e0e0e0" stroke="#e0e0e0" stroke-width="1"
        opacity="0.0784313725490196" d="M 58.5 14 L 59.5 16 L 58.5 14 Z " />
    <path fill="#e0e0e0" stroke="#e0e0e0" stroke-width="1"
        opacity="0.0784313725490196" d="M 14.5 24 L 13.5 26 L 14.5 24 Z " />
    <path fill="#e0e0e0" stroke="#e0e0e0" stroke-width="1"
        opacity="0.0784313725490196" d="M 49.5 24 L 50.5 26 L 49.5 24 Z " />
    <path fill="#e0e0e0" stroke="#e0e0e0" stroke-width="1"
        opacity="0.0784313725490196" d="M 12.5 27 L 13 30.5 L 12 30.5 L 12.5 27 Z " />
    <path fill="#e0e0e0" stroke="#e0e0e0" stroke-width="1"
        opacity="0.0784313725490196" d="M 12.5 33 L 13 36.5 L 12 36.5 L 12.5 33 Z " />
    <path fill="#e0e0e0" stroke="#e0e0e0" stroke-width="1"
        opacity="0.0784313725490196" d="M 51.5 35 L 52 37.5 L 51 37.5 L 51.5 35 Z " />
    <path fill="#e0e0e0" stroke="#e0e0e0" stroke-width="1"
        opacity="0.0784313725490196" d="M 46.5 44 L 45.5 46 L 46.5 44 Z " />
    <path fill="#e0e0e0" stroke="#e0e0e0" stroke-width="1"
        opacity="0.0784313725490196" d="M 12.5 47 L 14.5 50 L 12.5 47 Z " />
    <path fill="#e0e0e0" stroke="#e0e0e0" stroke-width="1"
        opacity="0.0784313725490196" d="M 11.5 49 L 14 52.5 L 13 52.5 L 11.5 49 Z " />
    <path fill="#e0e0e0" stroke="#e0e0e0" stroke-width="1"
        opacity="0.0784313725490196" d="M 4.5 51 L 7 54.5 L 6 54.5 L 4.5 51 Z " />
    <path fill="#e0e0e0" stroke="#e0e0e0" stroke-width="1"
        opacity="0.0784313725490196" d="M 15.5 51 L 16.5 53 L 15.5 51 Z " />
    <path fill="#e0e0e0" stroke="#e0e0e0" stroke-width="1"
        opacity="0.0784313725490196" d="M 39.5 52 L 40 63.5 L 39 63.5 L 39.5 52 Z " />
    <path fill="#e0e0e0" stroke="#e0e0e0" stroke-width="1"
        opacity="0.0784313725490196" d="M 58.5 52 L 58 53.5 L 57.5 55 L 57 53.5 L 58.5 52 Z " />
    <path fill="#e0e0e0" stroke="#e0e0e0" stroke-width="1"
        opacity="0.0784313725490196" d="M 18.5 53 L 23 53.5 L 18.5 54 L 18.5 53 Z " />
    <path fill="#e0e0e0" stroke="#e0e0e0" stroke-width="1"
        opacity="0.0784313725490196" d="M 14.5 54 L 15.5 56 L 14.5 54 Z " />
    <path fill="#e0e0e0" stroke="#e0e0e0" stroke-width="1"
        opacity="0.0784313725490196" d="M 17.5 56 L 20 56.5 L 17.5 57 L 17.5 56 Z " />
    <path fill="#e0e0e0" stroke="#e0e0e0" stroke-width="1"
        opacity="0.0784313725490196"
        d="M 21.5 56 L 25 56 L 25 63.5 L 24 63.5 L 24 57 L 21.5 57 L 21.5 56 Z " />
    <path fill="#e0e0e0" stroke="#e0e0e0" stroke-width="1"
        opacity="0.0784313725490196" d="M 10.5 58 L 11.5 60 L 10.5 58 Z " />
    <path fill="#e0e0e0" stroke="#e0e0e0" stroke-width="1"
        opacity="0.0784313725490196" d="M 53.5 58 L 52.5 60 L 53.5 58 Z " />
    <path fill="#e0e0e0" stroke="#e0e0e0" stroke-width="1"
        opacity="0.7686274509803922" d="M 11.5 8 L 8.5 12 L 11.5 8 Z " />
    <path fill="#e0e0e0" stroke="#e0e0e0" stroke-width="1"
        opacity="0.7686274509803922" d="M 52.5 8 L 55.5 12 L 52.5 8 Z " />
    <path fill="#e0e0e0" stroke="#e0e0e0" stroke-width="1"
        opacity="0.7686274509803922" d="M 13.5 47 L 14.5 49 L 13.5 47 Z " />
    <path fill="#e0e0e0" stroke="#e0e0e0" stroke-width="1"
        opacity="0.5607843137254902" d="M 52.5 30 L 53 33.5 L 52 33.5 L 52.5 30 Z " />
    <path fill="#e0e0e0" stroke="#e0e0e0" stroke-width="1"
        opacity="0.5607843137254902" d="M 8.5 55 L 11.5 59 L 8.5 55 Z " />
    <path fill="#e0e0e0" stroke="#e0e0e0" stroke-width="1"
        opacity="0.5607843137254902" d="M 55.5 55 L 52.5 59 L 55.5 55 Z " />
    <path fill="#e0e0e0" stroke="#e0e0e0" stroke-width="1"
        opacity="0.3607843137254902" d="M 30.5 0 L 34 0.5 L 30.5 1 L 30.5 0 Z " />
    <path fill="#e0e0e0" stroke="#e0e0e0" stroke-width="1"
        opacity="0.3607843137254902" d="M 30.5 16 L 34 16.5 L 30.5 17 L 30.5 16 Z " />
    <path fill="#e0e0e0" stroke="#e0e0e0" stroke-width="1"
        opacity="0.3607843137254902" d="M 14.5 17 L 15 20.5 L 14 20.5 L 14.5 17 Z " />
    <path fill="#e0e0e0" stroke="#e0e0e0" stroke-width="1"
        opacity="0.3607843137254902" d="M 38.5 47 L 41 47.5 L 38.5 48 L 38.5 47 Z " />
</svg>