<svg viewBox="0 0 512 512" version="1.1" xmlns="http://www.w3.org/2000/svg">
    <path fill="rgb(255,255,255)" stroke="rgb(255,255,255)" stroke-width="1"
        opacity="0.8980392156862745"
        d="M 241.5 6 L 268.5 6 L 269.5 7 L 285.5 7 Q 290.1 9.9 298.5 9 L 303.5 11 L 313.5 12 L 316.5 14 L 321.5 14 L 324.5 16 L 328.5 16 L 331.5 18 L 343.5 21 L 345.5 23 L 348.5 23 L 350.5 25 L 353.5 25 Q 405.2 47.8 441 86.5 L 454 103 Q 456.7 101.9 456 104.5 L 472 126.5 L 490 160.5 L 501 190.5 L 507 218.5 L 505 217.5 L 504 207.5 L 502 205.5 Q 503.5 199 500 197.5 L 500 190 Q 496 191.4 498 184.5 L 493 175.5 L 493 171.5 L 491 169.5 L 489 161.5 L 469 124 Q 466 125.3 467 121.5 L 462 114 Q 459 115.3 460 111.5 L 458 108 Q 455.3 109.1 456 106.5 L 449 97 L 447 97 Q 448.5 93.2 445.5 94 L 440 87 L 438 87 L 438 85 L 436 85 Q 437.1 82.3 434.5 83 L 431 78 L 429 78 L 429 76 L 427 76 Q 428.1 73.3 425.5 74 L 424 71 L 413 64 Q 414.1 61.3 411.5 62 L 398 53 Q 399.1 50.3 396.5 51 L 391 47.5 Q 391.8 44.9 388.5 46 L 375.5 37 L 358 30 L 358 28 Q 351.7 29.5 352.5 26 L 348.5 26 L 339.5 21 Q 334.5 22 333.5 19 L 328.5 19 L 326.5 17 L 321.5 17 L 319.5 15 Q 311.4 16.1 308.5 12 L 298 12 L 297.5 10 L 283.5 10 L 281.5 8 L 230.5 8 L 227.5 10 L 214.5 10 Q 212.5 14 204.5 12 L 204.5 11 Q 210.6 11.6 213.5 9 L 221.5 9 L 227.5 7 L 240.5 7 L 241.5 6 Z " />
    <path fill="rgb(255,255,255)" stroke="rgb(255,255,255)" stroke-width="1"
        opacity="0.8980392156862745"
        d="M 199.5 12 L 203 12.5 L 198.5 15 L 192.5 15 Q 191.2 18.3 185.5 17 L 183.5 19 L 177 19 Q 178.3 22.7 172.5 21 L 163.5 26 L 159 26 L 159 28 L 154.5 28 L 154 30 L 151.5 30 Q 147.7 34.2 140.5 35 L 123.5 46 L 121 46 Q 122.1 48.7 119.5 48 L 114 51 Q 115.3 54 111.5 53 Q 106.6 59.3 99 62 Q 100.1 64.7 97.5 64 L 88 71 L 86.5 74 L 85 74 L 85 76 L 83 76 L 83 78 L 81 78 L 81 80 Q 78.3 78.9 79 81.5 L 76 83 L 76 85 L 74 85 L 74 87 Q 71.3 85.9 72 88.5 L 65 94 L 56 108 Q 53 106.8 54 110.5 L 52 114 Q 49.3 112.9 50 115.5 L 45 121.5 L 45 124 Q 42.3 122.9 43 125.5 L 34 139.5 L 34 142.5 L 32 146 Q 28.7 144.7 30 149.5 L 25 156.5 L 25 160.5 L 21 166.5 L 21 171 Q 17.3 169.7 19 175.5 L 14 185.5 L 14 189.5 L 12 191.5 L 12 197.5 L 10 199.5 L 10 205.5 L 8 207.5 Q 8.9 215.4 5.5 219 L 5 214.5 L 16 175.5 L 27 149.5 L 40 126.5 L 56 103 Q 58.7 104.1 58 101.5 L 86.5 71 Q 110.4 49.9 139.5 34 L 163.5 23 L 199.5 12 Z " />
    <path fill="rgb(255,255,255)" stroke="rgb(255,255,255)" stroke-width="1"
        opacity="0.8980392156862745"
        d="M 125.5 111 Q 131.5 110 133.5 113 L 143.5 113 Q 144.5 116 149.5 115 L 151.5 117 L 154.5 117 L 158.5 120 L 161.5 120 L 169.5 124 L 176.5 129 L 179 129 L 179 131 L 183 131 Q 181.9 133.7 184.5 133 L 190 136 L 190.5 138 L 199.5 138 L 201.5 136 Q 210.4 136.9 214.5 133 L 224.5 133 L 226.5 131 L 286.5 131 L 288.5 133 Q 299.5 131 304 135.5 L 299.5 136 L 294.5 134 L 284.5 134 L 277.5 132 L 235.5 132 L 234.5 133 L 219.5 134 L 214.5 136 L 204.5 137 L 192.5 141 L 180.5 132 L 157.5 120 L 139.5 114 L 124.5 113 L 122 114 L 120 117.5 L 120 121.5 L 116 131.5 L 115 145.5 L 114 146.5 L 114 159.5 L 115 160.5 L 116 173.5 L 119 183.5 L 107 199.5 L 100 213.5 L 96 226.5 L 93.5 244 L 93 232.5 L 95 230.5 L 95 223.5 Q 98.5 221.8 97 216 Q 100.7 217.3 99 211.5 Q 102.6 209.6 102 205 Q 105.3 206.3 104 201.5 Q 106.8 200.4 106 197 Q 108.7 198.1 108 195.5 L 111 190 Q 114 191.3 113 187.5 Q 118.3 186.3 117 178.5 L 115 176.5 Q 116.8 169.2 113 167.5 L 113 139.5 L 115 137.5 L 115 128.5 L 117 126.5 L 117 121.5 L 119 119.5 L 120 113 L 125.5 111 Z " />
    <path fill="rgb(255,255,255)" stroke="rgb(255,255,255)" stroke-width="1"
        opacity="0.8980392156862745"
        d="M 381.5 111 L 388.5 111 Q 389.6 113.8 393 113 Q 392 117.3 395 116.5 L 395 121.5 L 397 123.5 Q 395.8 130.2 399 132.5 L 399 141.5 L 398 141.5 L 396 126.5 L 394 119.5 L 390.5 114 Q 387 111.5 379.5 113 L 365.5 116 L 363.5 118 L 353.5 121 L 329.5 134 L 323.5 139 L 318.5 140 L 305 136.5 L 311.5 136 L 313.5 138 L 323 138 Q 321.8 135 325.5 136 Q 326.8 132.2 331 133 Q 329.9 130.3 332.5 131 Q 333.8 128 338 129 Q 336.9 126.3 339.5 127 L 363.5 115 Q 368.5 116 369.5 113 L 378.5 113 L 381.5 111 Z " />
    <path fill="rgb(255,255,255)" stroke="rgb(255,255,255)" stroke-width="1"
        opacity="0.8980392156862745"
        d="M 399.5 147 L 401 148.5 L 401 158.5 L 399 159.5 L 399.5 147 Z " />
    <path fill="rgb(255,255,255)" stroke="rgb(255,255,255)" stroke-width="1"
        opacity="0.8980392156862745"
        d="M 398.5 164 L 399 174 L 397 174 L 397 181.5 L 395.5 182 L 397 184.5 L 401 189.5 L 404 195 Q 407 193.8 406 197.5 Q 408.8 198.6 408 202 Q 411 200.8 410 204.5 L 415 213.5 L 415 218 Q 418.5 216.9 417 224.5 Q 420.7 226.3 419 233.5 L 418 233.5 L 416 221.5 L 412 213.5 L 412 210.5 L 407 200.5 L 394 183.5 L 394 181.5 L 396 178.5 L 398.5 164 Z " />
    <path fill="rgb(255,255,255)" stroke="rgb(255,255,255)" stroke-width="1"
        opacity="0.8980392156862745"
        d="M 507.5 220 L 510 232.5 L 510 241.5 L 512 245.5 L 512 258.5 L 510 257.5 L 509 253.5 L 509 232.5 L 507 230.5 L 507.5 220 Z " />
    <path fill="rgb(255,255,255)" stroke="rgb(255,255,255)" stroke-width="1"
        opacity="0.8980392156862745"
        d="M 4.5 221 L 5 231 L 3 231.5 L 3 253.5 L 0.5 259 L 0 245.5 L 2 241.5 L 2 231.5 L 4.5 221 Z " />
    <path fill="rgb(255,255,255)" stroke="rgb(255,255,255)" stroke-width="1"
        opacity="0.8980392156862745"
        d="M 419.5 235 L 422 241.5 L 422 270.5 L 419.5 280 L 419 269.5 L 420 268.5 L 420 243.5 L 419 242.5 L 419.5 235 Z " />
    <path fill="rgb(255,255,255)" stroke="rgb(255,255,255)" stroke-width="1"
        opacity="0.8980392156862745" d="M 92.5 248 L 93 261.5 L 92 261.5 L 92.5 248 Z " />
    <path fill="rgb(255,255,255)" stroke="rgb(255,255,255)" stroke-width="1"
        opacity="0.8980392156862745"
        d="M 93.5 268 L 96 291.5 L 103 315.5 Q 112.1 338.4 129.5 353 L 132.5 355 L 147.5 366 L 157.5 371 L 160.5 371 L 162.5 373 L 186.5 380 L 205.5 382 L 208 383.5 L 198 398.5 L 193 418 L 179.5 423 L 161.5 425 L 155.5 423 L 150.5 423 L 139.5 418 L 127 407.5 L 111 384 L 109 384 L 109 382 L 107 382 Q 108.1 379.3 105.5 380 L 92.5 371 L 84.5 369 L 75.5 369 L 69 371 L 68 376.5 L 73.5 383 L 84 389 L 85.5 392 Q 88.1 391.3 87 394 L 89 394 L 89 395.5 L 98 407.5 Q 105 418 109 431.5 L 118 444 L 133.5 453 L 148.5 457 L 156 457.5 L 143.5 458 L 141.5 456 L 136.5 456 L 122 449 Q 123.1 446.3 120.5 447 L 115 442.5 L 113 438 L 110 436.5 L 106 429.5 L 106 426 L 104 426 L 104 420.5 L 102 420 L 102 418.5 L 101 415 L 99 415 Q 100.3 410.9 97 412 L 97 408 Q 94 409.3 95 405.5 L 81.5 390 L 73 385 Q 74.1 382.3 71.5 383 L 68 378 Q 64 379.4 66 372.5 Q 67.2 369.3 71 370 L 71.5 368 L 88.5 368 L 103 375 L 103 377 L 106 377 Q 104.9 379.7 107.5 379 Q 114.1 383.8 117 391 Q 120 389.8 119 393.5 L 130 409 L 132 409 L 134 413 L 136.5 413 L 141 416 L 141 418 Q 146.2 416.3 145 420 L 150.5 420 L 152.5 422 L 177.5 422 Q 180 418.8 186 420 L 186 418 L 191 418 Q 190 415 193 416 L 193 407.5 Q 196.5 408.5 195 401.5 L 200 391 L 202 391 L 202 388 Q 204.7 389.1 204 386.5 L 206 383 L 192.5 383 L 190.5 381 L 182.5 381 L 170.5 376 L 165 376 L 165 374 Q 158.7 375.5 159.5 372 L 155.5 372 Q 150.2 366.5 142 365 Q 143.3 362 139.5 363 L 135 360 Q 136.3 357 132.5 358 L 126 352.5 L 126 351 L 124 351 L 124 349 L 122 349 Q 123.1 346.3 120.5 347 L 115 338 L 113 338 L 113 335 Q 110.3 336.1 111 333.5 L 104 321.5 L 104 318.5 L 99 310.5 L 99 305.5 L 97 303.5 Q 98.8 296.3 95 294.5 L 95 285.5 L 93 283.5 L 93.5 268 Z " />
    <path fill="rgb(255,255,255)" stroke="rgb(255,255,255)" stroke-width="1"
        opacity="0.8980392156862745"
        d="M 0 276 Q 3.7 274.6 2 280.5 L 3 281.5 L 3 301.5 L 5 303.5 L 5 313.5 L 4 313.5 L 2 302.5 L 2 292.5 L 0 288.5 L 0 276 Z " />
    <path fill="rgb(255,255,255)" stroke="rgb(255,255,255)" stroke-width="1"
        opacity="0.8980392156862745"
        d="M 510 276 L 512 276.5 L 512 288.5 L 510 292.5 L 510 303.5 L 507.5 314 L 507 304.5 L 509 302.5 L 509 281.5 L 510 276 Z " />
    <path fill="rgb(255,255,255)" stroke="rgb(255,255,255)" stroke-width="1"
        opacity="0.8980392156862745"
        d="M 418.5 281 L 419 292 L 417 292.5 L 417 300.5 L 415 302.5 L 415 307.5 L 408 321.5 L 408 324.5 L 399 337.5 L 399 340 Q 396.3 338.9 397 341.5 L 385.5 354 L 382.5 356 L 379 358 Q 380.1 360.7 377.5 360 L 372 363 L 372 365 Q 366.7 363.8 367.5 367 L 364.5 367 L 357.5 372 Q 353.3 371.3 352.5 374 L 348.5 374 L 346.5 376 L 342.5 376 L 338.5 379 Q 332 377.5 330.5 381 L 322.5 381 L 320.5 383 L 307 383.5 L 308 386 Q 311 384.8 310 388.5 Q 314.6 391.6 315 398 L 317 398 L 317 404 L 319 404.5 L 319 410.5 L 318 410.5 Q 315.2 393.3 305 383.5 L 307.5 382 L 315.5 382 L 320.5 380 L 335.5 378 L 338.5 376 L 350.5 373 L 372.5 362 L 387 351 L 388.5 348 L 390 348 L 390 346 Q 392.7 347.1 392 344.5 L 403 330.5 L 410 316.5 L 410 313.5 L 416 297.5 L 418.5 281 Z " />
    <path fill="rgb(255,255,255)" stroke="rgb(255,255,255)" stroke-width="1"
        opacity="0.8980392156862745"
        d="M 5.5 316 L 8 320.5 L 8 326.5 L 10 329.5 L 10 335.5 L 12 337.5 L 12 343.5 Q 15.3 344.7 14 350.5 L 19 359.5 L 19 364 L 21 364 L 21 369.5 Q 24 368.5 23 373.5 L 25 377.5 L 24 377.5 L 11 344.5 L 11 340.5 L 9 337.5 L 7 324.5 L 5 320.5 L 5.5 316 Z " />
    <path fill="rgb(255,255,255)" stroke="rgb(255,255,255)" stroke-width="1"
        opacity="0.8980392156862745"
        d="M 506.5 316 L 507 320.5 L 505 324.5 L 505 329.5 L 501 340.5 L 501 344.5 L 494 361.5 L 494 364.5 L 480 394.5 Q 460.6 430.1 432.5 457 L 418 469 Q 419.1 471.7 416.5 471 L 408.5 478 L 381.5 496 L 349.5 512 L 347 512 L 348.5 509 L 351.5 509 L 359.5 504 L 367.5 502 Q 377 494 389 490 Q 387.9 487.3 390.5 488 Q 391.6 485.3 395 486 L 395 484 L 398 484 Q 396.9 481.3 399.5 482 L 408.5 475 L 411 475 L 414.5 470 L 427 461 L 427 459 L 429 459 L 429 457 Q 431.7 458.1 431 455.5 L 436 452 L 436 450 Q 438.7 451.1 438 448.5 L 440 445 L 442 445 Q 440.9 442.3 443.5 443 L 447 438 Q 449.7 439.1 449 436.5 L 454 429 L 458 427 L 458 424.5 L 462 418 Q 464.7 419.1 464 416.5 L 467 411 Q 470 412.3 469 408.5 L 476 398.5 L 476 396 Q 479.3 397.3 478 392.5 L 482 387.5 L 485 379 Q 488.7 380.4 487 374.5 L 491 368.5 L 491 364.5 L 493 362.5 L 496 351.5 L 498 349.5 Q 497.2 344.2 500 342.5 L 500 337.5 L 502 335.5 L 502 329.5 L 504 326.5 L 505 317.5 L 506.5 316 Z " />
    <path fill="rgb(255,255,255)" stroke="rgb(255,255,255)" stroke-width="1"
        opacity="0.8980392156862745"
        d="M 25 379 Q 27.7 377.9 27 380.5 L 34 393.5 L 34 396 Q 36.7 394.9 36 397.5 L 43 408.5 L 43 411 Q 45.7 409.9 45 412.5 L 48 418 Q 50.7 416.9 50 419.5 L 54 427 L 56 427 L 56 429 Q 58.7 427.9 58 430.5 L 63 438 Q 65.7 436.9 65 439.5 L 70 443 L 70 445 Q 72.7 443.9 72 446.5 L 74 450 L 76 450 Q 74.9 452.7 77.5 452 L 81 457 L 83 457 L 83 459 L 85 459 Q 83.9 461.7 86.5 461 L 90 463 Q 88.9 465.7 91.5 465 Q 101.1 475.7 114 482 Q 112.8 485 116.5 484 L 125.5 491 L 128 491 L 128 493 L 132 493 Q 130.8 496 134.5 495 L 145.5 502 L 148.5 502 L 156.5 507 L 160 507 L 160 509 L 165 509 L 165 512 L 134.5 498 L 116.5 487 L 106.5 479 L 103 478 Q 104.1 475.3 101.5 476 L 74 451.5 Q 54.9 432.1 40 408.5 L 25 379 Z " />
    <path fill="rgb(255,255,255)" stroke="rgb(255,255,255)" stroke-width="1"
        opacity="0.8980392156862745"
        d="M 319 412 L 321 412.5 L 321 419.5 L 322 420.5 L 322 506.5 L 324 511.5 L 323 511.5 L 320 503.5 L 320 481.5 L 321 480.5 L 321 424.5 L 319 412 Z " />
    <path fill="rgb(255,255,255)" stroke="rgb(255,255,255)" stroke-width="1"
        opacity="0.8980392156862745"
        d="M 187.5 455 Q 191.3 454.3 192 456.5 L 192 507.5 L 190 512 Q 187.3 513.1 188 510.5 L 191 506.5 L 191 456 Q 187.6 455.3 186.5 458 L 171.5 458 L 171.5 457 Q 181.8 458.3 187.5 455 Z " />
    <path fill="rgb(255,255,255)" stroke="rgb(255,255,255)" stroke-width="1" opacity="1"
        d="M 230.5 8 L 281.5 8 L 283.5 10 L 298 10 L 298.5 12 L 308.5 12 L 313.5 15 L 319.5 15 L 321.5 17 L 326.5 17 L 328.5 19 L 333.5 19 Q 334.5 22 339.5 21 L 348.5 26 L 353 26 L 353 28 L 357.5 28 L 358 30 L 360.5 30 L 368.5 35 L 375.5 37 L 388.5 46 L 391 46 L 392.5 49 L 398 51 Q 396.9 53.7 399.5 53 L 413 62 Q 411.9 64.7 414.5 64 L 424 71 L 425.5 74 L 427 74 L 427 76 L 429 76 L 429 78 Q 431.7 76.9 431 79.5 L 436 83 L 436 85 L 438 85 L 438 87 Q 440.7 85.9 440 88.5 L 447 94 L 447 97 Q 449.7 95.9 449 98.5 L 456 108 Q 458.7 106.9 458 109.5 Q 460.8 110.6 460 114 Q 462.7 112.9 462 115.5 L 467 121.5 L 467 124 Q 469.7 122.9 469 125.5 L 478 139.5 L 489 161.5 L 489 164.5 L 493 171.5 L 493 175.5 L 498 184.5 L 498 190 L 500 190.5 L 500 197.5 L 502 199.5 L 502 205.5 L 504 207.5 Q 503 216 507 219.5 L 507 230.5 L 509 232.5 L 509 253.5 L 512 259.5 L 512 276 Q 508.3 274.6 510 280.5 L 509 281.5 L 509 302.5 L 507 304.5 L 507 315.5 L 505 317.5 L 504 326.5 L 502 329.5 L 502 335.5 L 500 337.5 L 500 342.5 Q 497.2 344.2 498 349.5 L 496 351.5 L 495 357.5 L 491 364.5 L 491 368.5 L 487 374.5 L 487 379 Q 484.3 377.9 485 380.5 L 478 392.5 L 478 396 Q 475 394.8 476 398.5 L 469 408.5 L 469 411 Q 466.3 409.9 467 412.5 L 464 418 Q 461.3 416.9 462 419.5 L 458 424.5 L 458 427 L 456 427 L 456 429 Q 453.3 427.9 454 430.5 L 449 438 Q 446.3 436.9 447 439.5 L 442 443 L 442 445 Q 439.3 443.9 440 446.5 L 438 450 L 436 450 Q 437.1 452.7 434.5 452 L 431 457 L 429 457 L 429 459 L 427 459 Q 428.1 461.7 425.5 461 L 411 473.5 Q 411.8 476.1 408.5 475 L 401.5 481 L 398 482 L 398 484 L 395 484 Q 396.3 487 392.5 486 L 389 488 Q 390.1 490.7 387.5 490 L 371.5 500 L 364.5 502 L 362.5 504 L 359.5 504 L 356.5 507 L 353.5 507 L 347 510.5 L 346.5 512 L 324 512 L 322 506.5 L 322 420.5 L 321 419.5 L 321 412 L 319 412 L 319 404.5 L 317 404 L 317 398.5 L 315 398 L 315 395.5 L 310 388.5 L 310 386 Q 307.3 387.1 308 384.5 L 307.5 383 L 320.5 383 L 322.5 381 L 330.5 381 Q 332 377.5 338.5 379 L 342.5 376 L 352.5 374 L 354.5 372 L 361.5 370 L 364.5 367 L 368 367 L 368 365 L 372 365 Q 370.9 362.3 373.5 363 L 379 360 Q 377.9 357.3 380.5 358 L 384 356 Q 382.9 353.3 385.5 354 Q 394 348.9 397 340 Q 400 341.3 399 337.5 L 406 328.5 L 408 321.5 L 413 313.5 Q 412 308.5 415 307.5 L 415 302.5 L 417 300.5 L 417 292 L 419 291.5 L 419 280.5 L 422 270.5 L 422 241.5 L 419 234.5 L 419 226.5 Q 415.3 224.6 417 218 Q 413.3 219.3 415 213.5 L 413 211.5 L 413 208.5 Q 409.4 206.6 410 202 Q 407 203.3 408 199.5 Q 405.3 198.4 406 195 Q 403.3 196.1 404 193.5 L 401 188 L 399 188 L 399 186 Q 396.3 187.1 397 184.5 L 395.5 182 L 397 181.5 L 397 174 L 399 173.5 L 399 160.5 L 401 158.5 L 401 148.5 L 399 146.5 L 399 132.5 L 397 129.5 L 397 123.5 Q 393.5 121.8 395 116 Q 391.7 117.1 393 113 L 390.5 113 Q 388.8 109.3 381.5 111 L 378.5 113 L 369.5 113 Q 368.5 116 363.5 115 L 361.5 117 L 351.5 120 L 338 127 Q 339.3 130.3 334.5 129 L 331 131 Q 332.3 134 328.5 133 Q 327.3 136.7 323 136 L 322.5 138 L 313.5 138 L 311.5 136 L 304.5 136 L 299.5 133 L 288.5 133 L 286.5 131 L 226.5 131 L 224.5 133 L 214.5 133 Q 210.4 136.9 201.5 136 L 199.5 138 L 190 138 Q 191.1 135.3 188.5 136 L 183 133 L 183 131 L 179 131 Q 180.3 128 176.5 129 L 169.5 124 L 161.5 120 L 158.5 120 L 154.5 117 L 151.5 117 L 149.5 115 Q 144.5 116 143.5 113 L 133.5 113 Q 131.5 110 125.5 111 L 120 113 L 119 119.5 L 117 121.5 L 117 126.5 L 115 128.5 L 115 137.5 L 113 139.5 L 113 167.5 L 115 169.5 L 115 176.5 Q 118.3 177.8 117 183.5 Q 112.3 184.9 113 190 Q 110.3 188.9 111 191.5 L 108 197 Q 105 195.8 106 199.5 Q 103 200.8 104 205 Q 101 203.8 102 207.5 Q 97.9 209.8 99 216 Q 95 214.6 97 221.5 L 95 223.5 Q 96.8 230.8 93 232.5 L 92 261.5 L 93 262.5 L 93 283.5 L 95 285.5 L 95 294.5 Q 98.8 296.3 97 303.5 Q 100.3 304.8 99 310.5 L 111 335 L 113 335 L 113 338 Q 115.7 336.9 115 339.5 L 120.5 347 L 122 347 L 122 349 L 124 349 L 124 351 Q 126.7 349.9 126 352.5 L 132.5 358 L 135 358 Q 133.9 360.7 136.5 360 Q 137.8 363.8 142 363 Q 140.8 366 144.5 365 L 155.5 372 L 160 372 L 160 374 L 165 374 L 165 376 L 170.5 376 L 182.5 381 Q 190.5 379 192.5 383 L 206 383 L 204 388 L 202 388 L 202 391 Q 199.3 389.9 200 392.5 L 195 401.5 L 195 407 L 193 407 L 193 415.5 Q 190.3 414.9 191 418 Q 184.7 416.5 185.5 420 L 180.5 420 L 177.5 422 L 152.5 422 Q 150.8 418.5 145 420 L 145 418 L 141 418 Q 142.1 415.3 139.5 416 Q 138.3 412.3 134 413 L 134 411 L 132 411 L 132 409 Q 129.3 410.1 130 407.5 Q 122.2 401.2 119 391 Q 116.3 392.1 117 389.5 L 107.5 379 L 101.5 375 L 98.5 372 L 90.5 370 L 88.5 368 L 71 368 Q 72.3 371 68.5 370 Q 64.5 371.7 66 378 Q 68.7 376.9 68 379.5 L 73 383 Q 71.9 385.7 74.5 385 L 88 396.5 L 95 405.5 L 95 408 L 97 408 L 97 412 L 99 412 L 99 415 Q 102 413.8 101 417.5 L 102 420 L 104 420 L 104 425.5 Q 107 424.5 106 429.5 L 111.5 438 Q 113.8 437.3 113 439.5 L 117.5 445 L 122 447 Q 120.9 449.7 123.5 449 L 131.5 454 Q 135.8 453.3 136.5 456 L 141.5 456 L 143.5 458 L 186.5 458 Q 187.6 455.3 191 456 L 191 506.5 L 188 512 L 165.5 512 L 165 509 L 160.5 509 Q 161.5 506 156.5 507 L 148.5 502 L 141.5 500 L 134.5 495 L 132 495 L 132 493 L 128 493 Q 129.3 490 125.5 491 L 116.5 484 L 114 484 Q 115.1 481.3 112.5 482 L 90 465 Q 91.1 462.3 88.5 463 L 85 461 L 85 459 L 83 459 L 83 457 Q 80.3 458.1 81 455.5 L 76 452 L 76 450 Q 73.3 451.1 74 448.5 L 72 445 L 70 445 Q 71.1 442.3 68.5 443 L 65 438 Q 62.3 439.1 63 436.5 L 58 429 L 56 429 L 56 427 Q 53.3 428.1 54 425.5 L 50 418 Q 47.3 419.1 48 416.5 L 45 411 Q 42 412.3 43 408.5 L 39 403.5 L 36 396 Q 33 397.3 34 393.5 L 28 383.5 L 27 379 Q 23.7 380.3 25 375.5 Q 22 374.3 23 370 L 21 370 L 21 364.5 Q 17.7 365.5 19 359.5 L 14 350.5 L 14 345.5 L 12 343.5 L 12 337.5 L 10 335.5 Q 11.2 328.8 8 326.5 L 8 320.5 L 5 315.5 L 5 303.5 L 3 301.5 L 3 281.5 L 2 276 L 0 275.5 L 0 259.5 L 3 253.5 L 3 231 L 5 230.5 L 5 219.5 L 8 213.5 L 8 207.5 L 10 205.5 L 10 199.5 Q 13.5 198 12 191.5 L 14 189.5 L 14 185.5 L 19 175.5 L 19 171 Q 22.7 172.3 21 166.5 L 25 160.5 L 25 156.5 L 30 149.5 L 30 146 Q 32.7 147.1 32 144.5 L 43 124 Q 46 125.3 45 121.5 L 50 114 Q 52.7 115.1 52 112.5 Q 54.8 111.4 54 108 Q 56.7 109.1 56 106.5 Q 62.5 101.5 65 94 L 72 88.5 L 72 87 L 74 87 L 74 85 L 76 85 Q 74.9 82.3 77.5 83 L 79 80 L 81 80 L 81 78 L 83 78 L 83 76 L 85 76 Q 83.9 73.3 86.5 74 L 88 71 L 99 64 Q 97.9 61.3 100.5 62 L 111.5 53 L 114 53 Q 112.9 50.3 115.5 51 L 121 48 Q 119.8 45 123.5 46 L 140.5 35 L 154 30 L 154 28 Q 160.3 29.5 159.5 26 L 163.5 26 L 172.5 21 L 177 21 Q 175.9 17.5 183.5 19 L 185.5 17 Q 191.2 18.3 192.5 15 L 198.5 15 L 203.5 12 L 212.5 12 L 214.5 10 L 227.5 10 L 230.5 8 Z " />
    <path fill="rgb(0,0,0)" stroke="rgb(0,0,0)" stroke-width="1" opacity="0"
        d="M 0 0 L 512 0 L 512 230.5 L 511 230.5 L 511 218.5 L 509 216.5 L 509 207.5 L 507.5 206 L 506 205.5 L 506 197 L 504 196.5 L 504 190.5 L 502 189.5 L 502 183.5 L 500 182.5 L 500 177.5 L 498 175.5 L 497 170 L 495 170 Q 496.5 163.7 493 164.5 L 493 158 L 491 158 Q 492.3 152.7 489 153.5 L 489 150.5 L 486 149 Q 487.3 143.7 484 144.5 L 484 140 L 482 140 L 482 136 Q 478.7 137.1 480 133 L 477 133 Q 478.2 127.7 475 128.5 L 475 124 L 471 122 L 471 118.5 L 469 115 L 466 115 Q 467 112 464 113 L 464 108 L 462 108 L 460 104 L 457 104 L 457 99 L 455 99 L 455 97 Q 452.3 98.1 453 95.5 L 451 92 Q 448 93 449 90 L 446 90 Q 447 87 444 88 L 444 85 L 442 85 L 440 81 L 437 81 Q 438 78 435 79 L 435 76 L 433 76 L 433 74 L 431 74 Q 432.1 71.3 429.5 72 L 428 69 L 426 69 L 426 67 L 424 67 L 422 63 L 417 63 L 417 60 L 415 60 L 415 58 L 413 58 L 411 54 L 408.5 54 L 406 53 L 404 49 L 400 49 Q 401.1 45.7 397 47 L 397 44 L 393 44 Q 394.1 41.3 391.5 42 Q 390.3 39 386 40 Q 387.2 36.3 382 38 L 382 35 L 377 35 L 377 33 Q 371.8 34.7 373 31 L 368 31 L 368 28 Q 362.8 29.7 364 26 L 359 26 L 359 24 Q 353.7 25.3 354.5 22 L 348 22 L 348 19 L 342 19 L 341.5 17 L 335.5 17 L 335 15 L 328.5 15 L 327.5 13 L 319.5 13 L 319 10 L 310.5 10 L 309.5 8 L 297.5 8 L 296.5 6 L 279.5 6 L 279 4.5 L 277.5 3 L 234.5 3 L 233 6 L 213.5 6 L 212.5 8 L 202.5 8 L 201.5 10 L 193 10 L 192.5 13 L 184.5 13 L 183.5 15 Q 175.6 13.8 176.5 17 L 170.5 17 L 170 19 L 164 19 L 163.5 22 L 157 22 L 157 24 Q 151.8 22.3 153 26 L 148.5 26 Q 149.3 29.3 144 28 L 144 31 L 139 31 L 139 33 Q 133.8 31.3 135 35 L 130 35 L 130 38 Q 124.7 36.7 125.5 40 L 122.5 40 L 119 42 L 119 44 L 115 44 L 115 47 Q 110.9 45.7 112 49 L 108 49 L 108 51 L 106 51 Q 107.1 53.7 104.5 53 L 101 54 L 101 56 L 99 56 L 99 58 L 95 60 L 95 63 L 90 63 L 90 65 L 88 65 L 88 67 L 86 67 Q 87.1 69.7 84.5 69 L 83 72 L 81 72 L 81 74 L 77 76 L 77 79 Q 74 78 75 81 L 72 81 L 72 83 L 68 85 L 68 88 Q 65 87 66 90 L 63 90 L 63 92 Q 60.3 90.9 61 93.5 L 59 97 L 55 99 L 55 104 L 52 104 L 52 106 L 48 108 L 48 113 L 46 113 Q 47.1 115.7 44.5 115 Q 40 116.4 41 122 L 39 122 L 39 126 L 37 126 Q 38.3 130.1 35 129 L 35 133 L 32 133 L 32 138 L 28 140 L 28 145 L 26 145 L 26 149 L 24.5 149 Q 22 150.2 23 154 L 21 154 Q 22.7 159.2 19 158 L 19 165 L 17 165 L 17 170 Q 14.3 168.9 15 171.5 L 12 177.5 L 12 183 L 10 183 L 10 189.5 L 8 190.5 L 8 196.5 L 6 197 L 6 205.5 L 4.5 206 L 3 207.5 L 3 216.5 L 1 218.5 L 0.5 233 L 0 0 Z " />
    <path fill="rgb(0,0,0)" stroke="rgb(0,0,0)" stroke-width="1" opacity="0"
        d="M 124 115 L 132.5 115 L 133.5 117 L 143.5 117 L 144 119 L 150 119 L 150 122 L 154.5 122 L 155 124 L 160.5 124 Q 159.7 127.5 166 126 L 166 129 Q 171.3 127.8 170.5 131 L 175 131 L 177 135 L 181 135 L 181 136.5 Q 182.2 139 186 138 L 186 140 Q 189.1 139.3 188.5 142 L 201 142 L 201 140 L 209.5 140 L 210.5 138 L 222.5 138 L 224 135 L 249.5 135 L 250.5 133 L 264 133 L 264.5 135 L 287.5 135 L 288 136.5 L 289.5 138 L 302 138 L 302 140 L 312.5 140 L 313.5 142 L 326 142 L 328 138 L 331.5 138 L 333 135 Q 336 136 335 133 L 339 133 L 339 131 L 344 131 Q 342.9 128.3 345.5 129 L 348 128 L 348 126 L 353 126 L 353 124 Q 358.2 125.7 357 122 L 362.5 122 L 364 119 Q 369.8 120.5 371.5 117 L 378.5 117 L 380.5 115 L 387.5 115 L 391 117 L 391 123.5 L 393 124.5 L 393 132.5 L 395 133.5 L 395 145.5 L 397 147.5 L 397 161 L 395 161.5 L 395 173.5 L 393 174 L 393 180.5 Q 389.8 179.7 391 185 L 393 185 L 393 188 L 397 190 L 397 192.5 L 400 194 Q 398.7 198.1 402 197 L 402 201 L 404 201 L 404 204 L 406 204 L 406 208 Q 408.7 206.9 408 209.5 L 409 213 Q 413 211.6 411 218.5 Q 414.5 220.2 413 226 L 415 226.5 L 415 236.5 L 417 238.5 L 417 279 L 415 279.5 L 415 291.5 L 413 292.5 L 413 301.5 L 411 302 L 411 307.5 L 409 308 L 409 310.5 L 408 315 L 406 315 L 406 320 L 404 320 Q 405.7 325.2 402 324 L 402 329 L 400 329 Q 401.1 331.7 398.5 331 Q 396 332.2 397 336 L 395 336 L 395 338 L 393 338 Q 394 341 391 340 L 391 343 L 389.5 343 L 386 345 L 386 347 L 382 349 L 382 352 Q 379 351 380 354 L 377 354 L 377 356 L 373 356 Q 374 359 371 358 L 371 361 L 366 361 L 366 363 Q 360.7 361.8 361.5 365 L 358.5 365 L 357 368 Q 351.7 366.7 352.5 370 L 346 370 L 345.5 372 L 340 372 L 339.5 374 L 332.5 374 L 331 377 L 322.5 377 L 321.5 379 L 306.5 379 Q 307.3 382.3 302 381 L 302 386 L 306 388 L 306 392 Q 309.3 390.9 308 395 L 311 395 Q 309.8 400.3 313 399.5 L 313 404 L 315 404.5 L 315 413 L 317 413.5 L 317 507.5 Q 320.3 506.7 319 512 L 193 511.5 L 195 511 L 195 452.5 L 194.5 452 L 188 452 L 187.5 454 L 168.5 454 L 167.5 456 L 159 456 L 158.5 454 L 144.5 454 Q 142.8 450.5 137 452 L 135.5 449 L 130 449 L 128 445 L 124 445 Q 125.1 441.7 121 443 L 121 440 L 119 440 L 119 438 L 117 438 L 115 434 L 112 434 L 112 429 L 110 429 L 110 424.5 L 108 424 L 108 418.5 Q 105 419.5 106 414.5 L 101 411 L 101 406.5 Q 97.8 407.3 99 402 L 97 402 L 97 399 Q 94 400 95 397 L 92 397 L 92 393 Q 88.7 394.1 90 390 L 88 390 L 86 386 L 81 386 L 81 383 Q 78 384 79 381 L 75 381 Q 76.1 377.7 72 379 Q 73 376 70 377 L 70 374 Q 73.1 374.8 72.5 372 L 88 372 L 88.5 374 L 95 374 L 95 377 Q 98 376 97 379 L 101 379 Q 99.9 382.3 104 381 Q 103 384 106 383 L 106 386 L 108 386 L 108 388 L 110 388 L 110 390 Q 112.7 388.9 112 391.5 L 115 393 L 115 397 L 119 399 L 119 404 Q 122 403 121 406 L 124 406 Q 123 409 126 408 L 126 411 L 128 411 L 128 413 L 130 413 L 130 415 Q 132.7 413.9 132 416.5 L 135 418 L 135 420 Q 140.2 418.3 139 422 L 144 422 L 144 424 L 149.5 424 L 150 425.5 L 151.5 427 L 177.5 427 L 179 424 L 187.5 424 Q 186.5 421 191.5 422 L 195 420 Q 198.5 416.7 197 408 L 199 408 L 199 402 L 201 402 L 201 397 L 204 397 L 204 393.5 L 206 390 L 208 390 L 208 388 L 210 388 L 210 386 Q 212.7 387.1 212 384.5 L 212 382.5 L 211.5 381 L 206 381 L 205.5 379 L 192.5 379 L 191.5 377 L 181 377 L 180.5 374 L 172.5 374 L 172 372 L 166.5 372 Q 167.3 368.5 161 370 L 161 368 L 155 368 L 155 365 L 150 365 L 150 363 L 146 363 L 146 361 Q 143.3 362.1 144 359.5 Q 142.8 357 139 358 L 139 356 L 137 356 L 135 352 L 130 352 L 130 349 L 128 349 L 128 347 L 126 347 L 126 345 Q 123.3 346.1 124 343.5 L 121 342 L 121 338 L 117 336 Q 118.3 331.9 115 333 L 115 329 L 112 329 L 112 324 L 108 322 L 108 316.5 Q 105 315.3 106 311 Q 102.7 312.3 104 307.5 L 103 304 L 101 304 L 101 295.5 L 99 294.5 L 99 284.5 L 97 282.5 L 97 261 L 95 260.5 L 95 249 L 97 248.5 L 97 231.5 L 99 231 L 99 224.5 L 101 224 L 101 217.5 L 103 217 L 103 214.5 L 104 210 L 106 210 L 106 206 Q 108.7 207.1 108 204.5 Q 111 203.3 110 199 L 112 199 L 112 195 L 113.5 195 L 115 192 L 117 192 L 117 190 L 121 188 L 121 177.5 L 119 175.5 Q 120.8 168.3 117 166.5 L 117 138 L 119 137.5 L 119 129.5 Q 122.5 127.8 121 122 Q 124 123.3 123 119.5 L 124 115 Z " />
    <path fill="rgb(0,0,0)" stroke="rgb(0,0,0)" stroke-width="1" opacity="0"
        d="M 511.5 301 L 512 512 L 355 511.5 L 359 511 L 359 509 L 364 509 L 364 506 L 369.5 506 Q 370.8 503 375 504 Q 374 501 377 502 L 377 499 L 382 499 L 382 497 Q 387.3 498.3 386.5 495 L 389.5 495 L 393 493 L 393 490 L 397 490 L 397 488 Q 401.1 489.3 400 486 L 404 486 Q 403 483 406 484 L 406 481 L 411 481 L 411 479 L 415 477 L 415 474 L 418.5 474 L 422 472 L 422 470 L 424 470 Q 423 467 426 468 L 426 465 L 427.5 465 L 431 463 L 431 461 L 435 459 L 435 456 Q 438 457 437 454 L 440 454 Q 439 451 442 452 L 442 449 L 444 449 L 446 445 L 449 445 Q 448 442 451 443 L 451 440 L 453 440 L 453 438 L 457 436 L 457 431 L 460 431 L 460 429 L 464 427 L 464 422 L 466 422 Q 464.9 419.3 467.5 420 L 469 417 L 471 417 Q 469.3 411.8 473 413 L 473 408 L 477 406 L 477 402 L 480 402 L 480 397 L 484 395 L 484 390 L 486 390 L 486 386 L 487.5 386 Q 490 384.8 489 381 Q 492.3 382.3 491 377.5 Q 494.5 375.8 493 370 L 495 370 L 495 365 Q 497.7 366.1 497 363.5 L 498 358 Q 502 359.4 500 352.5 Q 503.5 350.8 502 345 L 504 345 L 504 338.5 L 506 338 L 506 329.5 L 507.5 329 L 509 327.5 L 509 317 L 511 316.5 L 511.5 301 Z " />
    <path fill="rgb(0,0,0)" stroke="rgb(0,0,0)" stroke-width="1" opacity="0"
        d="M 0.5 304 L 1 317 L 3 317.5 L 3 327.5 L 6 329 L 6 337.5 L 8 338.5 L 8 344.5 Q 11.5 343.5 10 350.5 Q 13.5 352.2 12 358 Q 15.3 356.7 14 361.5 L 15 365 L 17 365 L 17 370 L 19 370 L 19 375.5 Q 22 376.8 21 381 Q 24.3 379.7 23 384.5 L 26 386 Q 24.8 391.3 28 390.5 L 28 395 L 30 395 L 30 399 Q 32.7 397.9 32 400.5 L 35 402 Q 33.8 407.3 37 406.5 L 37 411 L 41 413 L 41 417 Q 43.7 415.9 43 418.5 L 46 420 Q 45 423 48 422 L 48 427 L 50 427 L 52 431 L 55 431 L 55 436 L 57 436 L 57 438 L 59 438 Q 58 441 61 440 L 61 443 L 62.5 443 L 66 445 L 66 447 L 70 449 L 70 452 Q 73 451 72 454 L 75 454 L 75 456 Q 77.7 454.9 77 457.5 L 79 461 L 81 461 Q 79.9 463.7 82.5 463 L 86 465 L 86 468 L 88 468 L 90 472 L 95 472 Q 94 475 97 474 L 97 477 L 99 477 L 101 481 L 106 481 L 106 484 Q 109 483 108 486 L 112 486 L 112 488 Q 116.1 486.7 115 490 L 119 490 L 119 493 L 124 493 L 126 497 Q 131.3 495.8 130.5 499 L 135 499 L 135 502 Q 140.3 500.8 139.5 504 L 144 504 L 144 506 L 148 506 L 148 509 Q 154.3 507.5 153.5 511 L 158.5 511 L 158.5 512 L 0 512 L 0.5 304 Z " />
    <path fill="rgb(255,255,255)" stroke="rgb(255,255,255)" stroke-width="1"
        opacity="0.2784313725490196"
        d="M 234.5 3 L 277.5 3 L 279 4.5 L 279.5 6 L 296.5 6 L 297.5 8 L 309.5 8 L 310.5 10 L 319 10 L 319.5 13 L 327.5 13 L 328.5 15 Q 336.4 13.8 335.5 17 L 341.5 17 L 342 19 L 348 19 L 348.5 22 L 355 22 L 355 24 Q 360.2 22.3 359 26 L 363.5 26 Q 362.7 29.3 368 28 L 368 31 L 373 31 L 373 33 Q 378.2 31.3 377 35 L 382 35 L 382 38 Q 387.3 36.7 386.5 40 L 389.5 40 L 393 42 L 393 44 L 397 44 L 397 47 Q 401.1 45.7 400 49 L 404 49 L 404 51 L 406 51 Q 404.9 53.7 407.5 53 L 411 54 L 411 56 L 413 56 L 413 58 L 417 60 L 417 63 L 422 63 L 422 65 L 424 65 L 424 67 L 426 67 L 426 69 Q 428.7 67.9 428 70.5 L 431 72 L 431 74 L 435 76 L 435 79 Q 438 78 437 81 L 440 81 L 440 83 L 444 85 L 444 88 Q 447 87 446 90 L 449 90 L 449 92 Q 451.7 90.9 451 93.5 L 453 97 L 457 99 L 457 104 L 460 104 L 460 106 L 464 108 L 464 113 Q 467 112 466 115 L 469 115 L 469 116.5 Q 472 117.8 471 122 L 475 124 L 475 129 L 477 129 L 477 133 L 480 133 Q 478.7 137.1 482 136 Q 480.8 141.3 484 140.5 L 484 145 L 486 145 L 486 149 L 487.5 149 Q 490 150.2 489 154 L 491 154 Q 489.3 159.2 493 158 L 493 165 L 495 165 L 495 170 Q 497.7 168.9 497 171.5 L 500 177.5 L 500 183 L 502 183 L 502 189.5 L 504 190.5 L 504 196.5 L 506 197 L 506 205.5 L 507.5 206 L 509 207.5 L 509 216.5 L 511 218.5 L 512 244.5 L 511 244.5 L 510 232.5 L 509 231.5 L 507 214.5 L 505 210.5 L 505 205.5 L 494 169.5 L 479 138.5 L 456 103 Q 453.3 104.1 454 101.5 L 425.5 71 Q 408.9 56.1 389.5 44 L 372.5 34 L 353.5 25 L 345.5 23 L 343.5 21 L 340.5 21 L 328.5 16 L 324.5 16 L 321.5 14 L 316.5 14 L 313.5 12 L 303.5 11 L 298.5 9 L 291.5 9 L 285.5 7 L 241.5 6 L 240.5 7 L 227.5 7 Q 222.5 10 213.5 9 L 195.5 14 L 190.5 14 L 187.5 16 L 183.5 16 L 166.5 23 L 163.5 23 L 143.5 32 Q 102.1 53.1 72 85.5 L 58 103 Q 55.3 101.9 56 104.5 L 34 136.5 L 16 175.5 L 7 205.5 L 7 210.5 L 5 214.5 L 5 220.5 L 2 231.5 L 2 241.5 L 0.5 245 L 0 233.5 L 1 232.5 L 1 218.5 L 3 216.5 L 3 207.5 L 4.5 206 L 6 205.5 L 6 197 L 8 196.5 L 8 190.5 L 10 189.5 L 10 183.5 L 12 182.5 L 12 177.5 L 14 175.5 L 15 170 L 17 170 Q 15.5 163.7 19 164.5 L 19 158 L 21 158 Q 19.8 152.7 23 153.5 L 23 150.5 L 26 149 Q 24.8 143.7 28 144.5 L 28 140 L 32 138 L 32 133 L 35 133 L 35 129 L 37 129 Q 35.7 124.9 39 126 Q 37.8 120.7 41 121.5 L 41 118.5 L 46 115 Q 45 112 48 113 L 48 108 L 50 108 L 52 104 L 55 104 L 55 99 L 57 99 L 57 97 Q 59.7 98.1 59 95.5 L 61 92 Q 64 93 63 90 L 66 90 Q 65 87 68 88 L 68 85 L 70 85 L 72 81 L 75 81 Q 74 78 77 79 L 77 76 L 79 76 L 79 74 L 81 74 L 81 72 Q 83.7 73.1 83 70.5 L 86 69 L 86 67 L 88 67 L 90 63 L 95 63 L 95 60 L 97 60 L 97 58 L 99 58 L 101 54 L 103.5 54 L 106 53 L 108 49 L 112 49 Q 110.9 45.7 115 47 L 115 44 L 119 44 Q 117.9 41.3 120.5 42 Q 121.8 39 126 40 Q 124.8 36.3 130 38 L 130 35 L 135 35 L 135 33 Q 140.2 34.7 139 31 L 144 31 L 144 28 Q 149.2 29.7 148 26 L 153 26 L 153 24 Q 158.3 25.3 157.5 22 L 164 22 L 164 19 L 170 19 L 170.5 17 L 176.5 17 L 177 15 L 183.5 15 L 184.5 13 L 192.5 13 L 193 10 L 201.5 10 L 202.5 8 L 212.5 8 L 213.5 6 L 232.5 6 L 233 4.5 L 234.5 3 Z " />
    <path fill="rgb(255,255,255)" stroke="rgb(255,255,255)" stroke-width="1"
        opacity="0.2784313725490196"
        d="M 124.5 113 L 139.5 114 L 157.5 120 L 180.5 132 L 192.5 141 L 204.5 137 L 214.5 136 L 219.5 134 L 234.5 133 L 235.5 132 L 277.5 132 L 284.5 134 L 294.5 134 L 299.5 136 L 304.5 136 Q 311.5 139.5 321.5 140 Q 338.8 126.8 360.5 118 L 373.5 114 L 388.5 113 L 392 115.5 L 398 135.5 Q 396.5 141 399 142.5 L 399 163.5 L 394 183.5 L 407 200.5 L 416 221.5 L 420 243.5 L 420 268.5 L 419 269.5 L 419 280.5 L 416 292.5 L 416 297.5 L 410 313.5 L 410 316.5 L 403 330.5 L 392 346 L 390 346 Q 391.1 348.7 388.5 348 L 387 351 L 372.5 362 L 350.5 373 L 347.5 373 L 335.5 378 L 330.5 378 L 326.5 380 Q 319.1 379.1 315.5 382 L 307.5 382 L 305 383.5 L 314 396.5 L 320 416.5 Q 318.3 422.8 321 424.5 L 321 480.5 L 320 481.5 L 320 503.5 L 323 512 L 319 512 Q 320.3 506.7 317 507.5 L 317 413.5 L 315 412.5 L 315 404.5 Q 311.5 405.3 313 399 L 311 399 L 311 395 L 308 395 Q 309.3 390.9 306 392 L 306 388 L 302 386 L 302 381 Q 307.3 382.3 306.5 379 L 321.5 379 L 322 377 L 330.5 377 L 331 375.5 L 332.5 374 L 340 374 L 340 372 L 346 372 L 346.5 370 L 353 370 L 353 368 L 357 368 L 357 366.5 Q 358.2 364 362 365 L 362 363 Q 367.2 364.7 366 361 L 371 361 L 371 358 Q 374 359 373 356 L 377 356 Q 375.9 352.7 380 354 Q 379 351 382 352 L 382 349 L 384 349 L 384 347 L 386 347 Q 384.9 344.3 387.5 345 L 391 343 L 391 340 L 393 340 L 393 338 L 397 336 L 397 332.5 L 400 331 Q 399 328 402 329 L 402 324 L 404 324 L 404 320 L 406 320 L 406 315.5 Q 409 316.5 408 311.5 L 409 308 L 411 308 L 411 302 L 413 301.5 L 413 292.5 L 415 291.5 L 415 279.5 L 417 278.5 L 417 238.5 L 415 236.5 L 415 226 Q 411 227.4 413 220.5 Q 409.5 218.8 411 213 Q 408 214.3 409 210.5 L 408 208 L 406 208 L 406 204 L 404 204 Q 405.3 199.9 402 201 L 402 197 L 400 197 Q 401.5 193.2 398.5 194 L 397 190 L 393 188 Q 394.3 183.9 391 185 L 391 181 L 393 181 L 393 174.5 L 395 173.5 L 395 161.5 L 397 160.5 L 397 147.5 L 395 145.5 L 395 133 L 393 133 L 393 124.5 L 391 124 L 391 117.5 L 389.5 117 Q 387.8 113.3 380.5 115 L 378.5 117 L 371.5 117 Q 369.8 120.5 364 119 L 362.5 122 L 357 122 L 357 124 L 353 124 L 353 126 L 348 126 Q 349.1 128.7 346.5 128 L 344 129 L 344 131 L 339.5 131 Q 340.3 134.3 335 133 L 335 135 Q 332.3 133.9 333 136.5 Q 331.8 139 328 138 L 328 140 Q 324.9 139.3 325.5 142 L 313 142 L 313 140 L 302.5 140 L 301.5 138 L 289.5 138 L 288 135 L 264.5 135 L 263.5 133 L 250 133 L 249.5 135 L 224.5 135 L 224 136.5 L 222.5 138 L 210 138 L 210 140 L 201.5 140 L 200.5 142 L 188 142 L 186 138 L 182.5 138 L 181 135 L 177 135 L 175 131 L 170.5 131 Q 171.3 127.8 166 129 L 166 126 L 161.5 126 L 161 124 L 155.5 124 Q 156.3 120.5 150 122 L 150 119 L 144 119 L 143.5 117 L 133.5 117 L 132.5 115 L 124 115 L 123 122 Q 119 120.6 121 127.5 L 119 129.5 L 119 138 L 117 138.5 L 117 166.5 L 119 168.5 Q 117.2 175.7 121 177.5 L 121 188 L 119 188 L 119 190 L 117 190 L 117 192 Q 114.3 190.9 115 193.5 L 112 195 Q 113.3 200.3 110 199.5 L 110 202.5 L 108 206 L 106 206 Q 107.2 211.3 104 210.5 L 104 213.5 L 103 217 L 101 217 L 101 223.5 L 99 224.5 L 99 230.5 L 97 231.5 L 97 248.5 L 95 249.5 L 95 261 L 97 261.5 L 97 282.5 L 99 284.5 L 99 295 L 101 295 L 101 303.5 L 103 304 L 103 306.5 L 104 311 Q 107.3 309.7 106 314.5 Q 109.5 316.2 108 322 L 112 324 L 112 329 L 115 329 L 115 333 L 117 333 L 117 336 L 121 338 L 121 342 L 122.5 342 L 124 345 L 126 345 L 128 349 L 130 349 L 130 352 L 135 352 L 135 354 L 137 354 L 139 358 L 142.5 358 L 144 361 Q 147 360 146 363 L 150 363 L 150 365 L 155 365 L 155 368 L 161 368 L 161 370 Q 167.3 368.5 166.5 372 L 172 372 L 172.5 374 L 180.5 374 L 181 377 L 191.5 377 L 192.5 379 L 205.5 379 L 206 381 L 211.5 381 L 212 382.5 L 212 384.5 L 206 391.5 Q 203 392.8 204 397 L 201 397 L 201 402 L 199 402 L 199 408 L 197 408.5 L 197 416.5 L 195 420 L 191.5 422 L 188 422 L 188 424 L 179.5 424 L 179 425.5 L 177.5 427 L 151.5 427 L 150 424 L 144 424 L 144 422 L 139 422 L 139 420 L 135 420 Q 136.1 417.3 133.5 418 L 132 415 L 130 415 L 130 413 L 126 411 L 126 408 Q 123 409 124 406 L 121 406 Q 122 403 119 404 L 119 399 L 115 397 L 115 393 L 113.5 393 L 112 390 L 110 390 L 110 388 L 106 386 L 106 383 Q 103 384 104 381 Q 99.9 382.3 101 379 L 97 379 Q 98 376 95 377 L 95 374 L 88.5 374 L 87.5 372 L 72 372 Q 73 375 70 374 L 70 377 Q 73 376 72 379 L 75 379 L 75 381 L 79 381 Q 78 384 81 383 L 81 386 L 86 386 L 86 388 L 90 390 Q 88.7 394.1 92 393 L 92 397 L 95 397 Q 94 400 97 399 Q 95.7 403.1 99 402 L 99 406 L 101 406 L 101 411 L 102.5 411 Q 107 412.4 106 418 L 108 418 L 108 423.5 Q 111.5 422.7 110 429 L 112 429 L 112 434 L 115 434 L 115 436 L 117 436 L 117 438 L 121 440 L 121 443 Q 125.1 441.7 124 445 L 128 445 L 130 449 L 135.5 449 L 137 452 Q 142.8 450.5 144.5 454 L 159 454 L 159.5 456 L 168 456 L 168.5 454 L 187.5 454 L 188.5 452 L 195 452 L 195 510.5 L 193.5 511 L 190 512 L 192 507.5 L 192 456.5 Q 191.3 454.3 187.5 455 L 181.5 457 L 156.5 458 L 133.5 453 L 118 444 L 109 431.5 L 102 414.5 L 89 394 L 87 394 Q 88.1 391.3 85.5 392 L 84 389 Q 75 385.7 69 378.5 L 68 373.5 L 69 371 L 75.5 369 L 84.5 369 L 92.5 371 L 107 380 L 107 382 L 109 382 L 109 384 Q 111.7 382.9 111 385.5 Q 118.6 392.4 123 402.5 L 133.5 414 L 150.5 423 L 167.5 425 L 173.5 423 L 179.5 423 L 193 418 L 198 398.5 L 208 383.5 L 205.5 382 L 186.5 380 L 162.5 373 L 160.5 371 L 157.5 371 L 147.5 366 L 131 355 Q 132.1 352.3 129.5 353 Q 118.8 343.7 111 331.5 L 100 307.5 L 94 277.5 L 93 244.5 L 94 243.5 L 94 236.5 L 96 226.5 L 100 213.5 L 107 199.5 L 118 185.5 L 119 181.5 L 115 167.5 L 114 146.5 L 115 145.5 L 116 131.5 L 118 128.5 L 120 117.5 L 122 114 L 124.5 113 Z " />
    <path fill="rgb(255,255,255)" stroke="rgb(255,255,255)" stroke-width="1"
        opacity="0.2784313725490196"
        d="M 0.5 289 L 2 292.5 L 2 302.5 L 5 314.5 L 5 320.5 L 7 324.5 L 9 337.5 L 11 340.5 L 11 344.5 L 13 347.5 L 16 359.5 L 18 361.5 L 18 364.5 L 25 380.5 Q 45.3 423.7 77.5 455 Q 88.7 467.7 103 476 Q 101.9 478.7 104.5 478 L 127.5 494 L 163 511.5 L 159.5 512 L 153 511 L 153 509 L 148 509 L 148 506 Q 142.8 507.7 144 504 L 139.5 504 Q 140.3 500.8 135 502 L 135 499 L 130.5 499 Q 131.3 495.8 126 497 L 124 493 L 119 493 L 119 490 L 115 490 L 115 488 Q 110.9 489.3 112 486 L 108 486 Q 109 483 106 484 L 106 481 L 101 481 L 101 479 L 97 477 L 97 474 Q 94 475 95 472 L 90 472 L 90 470 L 88 470 Q 89 467 86 468 L 86 465 L 84.5 465 L 81 463 L 81 461 Q 78.3 462.1 79 459.5 L 77 456 Q 74 457 75 454 L 72 454 Q 73 451 70 452 L 70 449 L 68 449 L 68 447 L 66 447 Q 67.1 444.3 64.5 445 L 61 443 L 61 440 L 59 440 L 59 438 L 55 436 L 55 431 L 52 431 L 52 429 L 48 427 L 48 422 L 46 422 Q 47.1 419.3 44.5 420 L 43 417 Q 39.3 418.2 41 413 L 37 411 L 37 406 L 35 406 L 35 402 L 33.5 402 L 32 399 L 30 399 Q 31.3 393.7 28 394.5 L 28 390 L 26 390 L 26 386 L 24.5 386 Q 22 384.8 23 381 Q 19.7 382.3 21 377.5 Q 17.5 375.8 19 370 L 17 370 L 17 365.5 L 15 365 L 15 362.5 L 14 358 Q 10 359.4 12 352.5 Q 8.5 350.8 10 345 L 8 345 L 8 338.5 L 6 338 L 6 329.5 L 4.5 329 L 3 327.5 L 3 317 L 1 316.5 L 1 304.5 L 0 303.5 L 0.5 289 Z " />
    <path fill="rgb(255,255,255)" stroke="rgb(255,255,255)" stroke-width="1"
        opacity="0.2784313725490196"
        d="M 511.5 289 L 512 300.5 L 511 301.5 L 511 317 L 509 317.5 L 509 327.5 L 506 329 L 506 337.5 L 504 338.5 L 504 344.5 Q 500.5 343.5 502 350.5 Q 498.5 352.2 500 358 Q 496.3 356.6 498 362.5 L 497 365 L 495 365 L 495 370 L 493 370 L 493 375.5 Q 490 376.8 491 381 Q 487.7 379.7 489 384.5 L 486 386 Q 487.3 391.3 484 390.5 L 484 395 L 480 397 L 480 402 L 477 402 L 477 406 L 473 408 L 473 413 L 471 413 L 471 417 Q 468.3 415.9 469 418.5 L 466 420 Q 467 423 464 422 L 464 427 L 462 427 L 460 431 L 457 431 L 457 436 L 455 436 L 455 438 L 451 440 L 451 443 Q 448 442 449 445 L 446 445 L 446 447 L 442 449 L 442 452 Q 439 451 440 454 L 437 454 Q 438 457 435 456 L 435 459 L 433 459 L 433 461 L 431 461 Q 432.1 463.7 429.5 463 L 426 465 L 426 468 L 424 468 L 424 470 L 422 470 Q 423.1 472.7 420.5 472 Q 419.3 475 415 474 L 415 477 L 413 477 L 411 481 L 406 481 L 406 484 Q 403 483 404 486 L 400 486 L 400 488 Q 395.9 486.7 397 490 L 393 490 Q 394.5 493.8 391.5 493 Q 390.3 496 386 495 L 386 497 Q 380.8 495.3 382 499 L 377 499 L 377 502 Q 374 501 375 504 L 371.5 504 Q 369.8 507.5 364 506 L 364 509 L 359.5 509 Q 360.5 512 355.5 511 L 350.5 512 L 351.5 510 L 361.5 505 L 364.5 505 L 381.5 496 L 418 471 Q 416.9 468.3 419.5 469 L 440 449.5 Q 457.8 430.8 472 408.5 L 489 376.5 L 503 337.5 L 510 303.5 Q 508.4 293.9 511.5 289 Z " />
</svg>