<svg viewBox="0 0 64 64" version="1.1" xmlns="http://www.w3.org/2000/svg">
    <path fill="#e0e0e0" stroke="#e0e0e0" stroke-width="1"
        opacity="0.15294117647058825"
        d="M 12.5 0 L 16 0.5 Q 7.6 1.1 4 6.5 Q 0.6 10.1 0.5 17 L 0 12.5 L 6.5 3 L 12.5 0 Z " />
    <path fill="#e0e0e0" stroke="#e0e0e0" stroke-width="1"
        opacity="0.15294117647058825"
        d="M 48.5 0 Q 58.4 0.6 62 7.5 L 64 14.5 L 63 14.5 Q 62.3 6.3 56.5 3 Q 54.2 0.3 48.5 1 L 48.5 0 Z " />
    <path fill="#e0e0e0" stroke="#e0e0e0" stroke-width="1"
        opacity="0.15294117647058825" d="M 11.5 8 L 8.5 12 L 11.5 8 Z " />
    <path fill="#e0e0e0" stroke="#e0e0e0" stroke-width="1"
        opacity="0.15294117647058825" d="M 52.5 8 L 55.5 12 L 52.5 8 Z " />
    <path fill="#e0e0e0" stroke="#e0e0e0" stroke-width="1"
        opacity="0.15294117647058825"
        d="M 24.5 16 L 26 16.5 L 19 21.5 L 16.5 27 L 16 24.5 L 22.5 17 L 24.5 16 Z " />
    <path fill="#e0e0e0" stroke="#e0e0e0" stroke-width="1"
        opacity="0.15294117647058825"
        d="M 38.5 16 Q 44.6 17.4 47 22.5 L 48 25.5 L 47 25.5 L 41.5 18 Q 37.8 17.8 38.5 16 Z " />
    <path fill="#e0e0e0" stroke="#e0e0e0" stroke-width="1"
        opacity="0.15294117647058825" d="M 26.5 23 L 23.5 27 L 26.5 23 Z " />
    <path fill="#e0e0e0" stroke="#e0e0e0" stroke-width="1"
        opacity="0.15294117647058825" d="M 40.5 26 L 41.5 28 L 40.5 26 Z " />
    <path fill="#e0e0e0" stroke="#e0e0e0" stroke-width="1"
        opacity="0.15294117647058825" d="M 41.5 36 L 40.5 38 L 41.5 36 Z " />
    <path fill="#e0e0e0" stroke="#e0e0e0" stroke-width="1"
        opacity="0.15294117647058825"
        d="M 16.5 37 L 22.5 46 L 27 47.5 L 24.5 48 L 18 42.5 Q 15 40.7 16.5 37 Z " />
    <path fill="#e0e0e0" stroke="#e0e0e0" stroke-width="1"
        opacity="0.15294117647058825" d="M 23.5 37 L 26.5 41 L 23.5 37 Z " />
    <path fill="#e0e0e0" stroke="#e0e0e0" stroke-width="1"
        opacity="0.15294117647058825"
        d="M 47.5 38 L 48 39.5 L 41.5 47 L 38.5 48 L 38.5 47 L 46 41.5 L 47.5 38 Z " />
    <path fill="#e0e0e0" stroke="#e0e0e0" stroke-width="1"
        opacity="0.15294117647058825"
        d="M 0.5 47 L 1 51.5 L 6.5 60 L 16 63.5 L 12.5 64 L 3 57.5 L 0 51.5 L 0.5 47 Z " />
    <path fill="#e0e0e0" stroke="#e0e0e0" stroke-width="1"
        opacity="0.15294117647058825"
        d="M 63.5 49 L 64 52.5 L 56.5 62 Q 54.2 64.7 48.5 64 L 48.5 63 Q 57.6 62.6 61 56.5 L 63.5 49 Z " />
    <path fill="#e0e0e0" stroke="#e0e0e0" stroke-width="1"
        opacity="0.15294117647058825" d="M 8.5 52 L 11.5 56 L 8.5 52 Z " />
    <path fill="#e0e0e0" stroke="#e0e0e0" stroke-width="1"
        opacity="0.15294117647058825" d="M 55.5 52 L 52.5 56 L 55.5 52 Z " />
    <path fill="rgb(0,0,0)" stroke="rgb(0,0,0)" stroke-width="1" opacity="0"
        d="M 0 0 L 12 0.5 L 3 6.5 L 0.5 12 L 0 0 Z " />
    <path fill="rgb(0,0,0)" stroke="rgb(0,0,0)" stroke-width="1" opacity="0"
        d="M 53.5 0 L 64 0 L 64 10.5 L 63 10.5 Q 61.6 4.4 56.5 2 Q 52.8 1.7 53.5 0 Z " />
    <path fill="rgb(0,0,0)" stroke="rgb(0,0,0)" stroke-width="1" opacity="0"
        d="M 18.5 6 L 46.5 6 Q 53 7.5 56 12.5 L 58 17.5 L 58 47.5 L 51.5 56 L 45.5 58 L 18.5 58 Q 11.1 56.9 8 51.5 L 6 43.5 L 6 21.5 L 8 12.5 L 12.5 8 L 18.5 6 Z M 48 11 L 45 14 L 46 18 Q 47 20 51 19 Q 54 18 53 13 Q 52 10 48 11 Z M 25 16 L 23 17 L 16 25 L 16 40 L 18 43 L 25 48 L 40 48 L 42 47 L 47 42 L 49 34 L 47 23 L 40 16 L 25 16 Z " />
    <path fill="rgb(0,0,0)" stroke="rgb(0,0,0)" stroke-width="1" opacity="0"
        d="M 29.5 22 Q 37.5 21 40 25.5 Q 43.4 28.1 42 35.5 L 38.5 40 Q 35.8 42.8 29.5 42 L 23 36.5 L 22 29.5 L 27.5 23 L 29.5 22 Z " />
    <path fill="rgb(0,0,0)" stroke="rgb(0,0,0)" stroke-width="1" opacity="0"
        d="M 0.5 52 L 6.5 61 L 12 63.5 L 0 64 L 0.5 52 Z " />
    <path fill="rgb(0,0,0)" stroke="rgb(0,0,0)" stroke-width="1" opacity="0"
        d="M 63.5 53 L 64 64 L 53 63.5 L 62 56.5 L 63.5 53 Z " />
    <path fill="#e0e0e0" stroke="#e0e0e0" stroke-width="1"
        opacity="0.6705882352941176" d="M 9.5 2 L 8.5 4 L 9.5 2 Z " />
    <path fill="#e0e0e0" stroke="#e0e0e0" stroke-width="1"
        opacity="0.6705882352941176" d="M 56.5 3 L 60.5 8 L 56.5 3 Z " />
    <path fill="#e0e0e0" stroke="#e0e0e0" stroke-width="1"
        opacity="0.6705882352941176" d="M 6.5 4 L 4.5 7 L 6.5 4 Z " />
    <path fill="#e0e0e0" stroke="#e0e0e0" stroke-width="1"
        opacity="0.6705882352941176"
        d="M 17.5 5 L 46.5 5 Q 53.9 6.1 57 11.5 L 59 16.5 L 59 47.5 Q 57.5 54 52.5 57 L 46.5 59 L 18.5 59 L 11.5 57 L 7 52.5 L 5 43.5 L 5 20.5 L 6.5 14 L 7 19.5 L 6 20.5 L 6 43.5 Q 8.5 45 7 50.5 L 11.5 56 L 18.5 58 L 46.5 58 Q 53.1 57.1 56 52.5 L 58 47.5 L 58 16.5 Q 56.8 10.8 52.5 8 L 46.5 6 L 17.5 6 Q 10.9 6.9 8 11.5 L 7.5 13 L 7 11.5 Q 10.1 6.1 17.5 5 Z " />
    <path fill="#e0e0e0" stroke="#e0e0e0" stroke-width="1"
        opacity="0.6705882352941176" d="M 3.5 8 L 2.5 10 L 3.5 8 Z " />
    <path fill="#e0e0e0" stroke="#e0e0e0" stroke-width="1"
        opacity="0.6705882352941176"
        d="M 47.5 11 Q 52 10 53 12.5 Q 54 18 50.5 19 L 52 16.5 Q 54.3 9.8 47.5 12 L 45 13.5 L 47.5 11 Z " />
    <path fill="#e0e0e0" stroke="#e0e0e0" stroke-width="1"
        opacity="0.6705882352941176" d="M 46.5 17 L 47.5 19 L 46.5 17 Z " />
    <path fill="#e0e0e0" stroke="#e0e0e0" stroke-width="1"
        opacity="0.6705882352941176" d="M 22.5 18 L 19.5 22 L 22.5 18 Z " />
    <path fill="#e0e0e0" stroke="#e0e0e0" stroke-width="1"
        opacity="0.6705882352941176" d="M 41.5 18 L 45.5 23 L 41.5 18 Z " />
    <path fill="#e0e0e0" stroke="#e0e0e0" stroke-width="1"
        opacity="0.6705882352941176"
        d="M 28.5 21 Q 37.9 19.6 41 24.5 Q 44.8 27.7 43 36.5 L 39.5 41 Q 36.2 44.2 28.5 43 L 22 37.5 L 21 28.5 L 26.5 22 L 28.5 21 Z M 29 22 L 27 23 L 22 29 L 23 38 L 29 42 Q 37 43 40 40 L 42 37 L 42 28 L 40 24 Q 37 21 29 22 Z " />
    <path fill="#e0e0e0" stroke="#e0e0e0" stroke-width="1"
        opacity="0.6705882352941176" d="M 18.5 23 L 17.5 25 L 18.5 23 Z " />
    <path fill="#e0e0e0" stroke="#e0e0e0" stroke-width="1"
        opacity="0.6705882352941176" d="M 17.5 39 L 18.5 41 L 17.5 39 Z " />
    <path fill="#e0e0e0" stroke="#e0e0e0" stroke-width="1"
        opacity="0.6705882352941176" d="M 45.5 41 L 41.5 46 L 45.5 41 Z " />
    <path fill="#e0e0e0" stroke="#e0e0e0" stroke-width="1"
        opacity="0.6705882352941176" d="M 19.5 42 L 22.5 46 L 19.5 42 Z " />
    <path fill="#e0e0e0" stroke="#e0e0e0" stroke-width="1"
        opacity="0.6705882352941176" d="M 60.5 56 L 56.5 61 L 60.5 56 Z " />
    <path fill="#e0e0e0" stroke="#e0e0e0" stroke-width="1"
        opacity="0.6705882352941176" d="M 4.5 57 L 6.5 60 L 4.5 57 Z " />
    <path fill="#e0e0e0" stroke="#e0e0e0" stroke-width="1"
        opacity="0.6705882352941176" d="M 8.5 60 L 9.5 62 L 8.5 60 Z " />
    <path fill="#e0e0e0" stroke="#e0e0e0" stroke-width="1"
        opacity="0.996078431372549"
        d="M 16.5 0 L 47.5 0 Q 56.8 1.8 61 8.5 L 64 15.5 L 64 48.5 Q 61.9 56.9 55.5 61 L 47.5 64 L 16.5 64 Q 8.2 62.3 4 56.5 L 0 45.5 L 0 17.5 L 2 10.5 L 7.5 4 L 16.5 0 Z M 18 5 L 12 7 L 7 12 L 5 21 L 5 44 L 7 53 L 12 57 L 19 59 L 47 59 L 53 57 Q 57 54 59 48 L 59 17 L 57 12 Q 54 6 47 5 L 18 5 Z " />
    <path fill="#e0e0e0" stroke="#e0e0e0" stroke-width="1"
        opacity="0.996078431372549"
        d="M 47.5 12 Q 54.3 9.8 52 16.5 L 48.5 19 L 45 14.5 L 47.5 12 Z " />
    <path fill="#e0e0e0" stroke="#e0e0e0" stroke-width="1"
        opacity="0.996078431372549"
        d="M 27.5 16 L 36.5 16 L 46 23.5 L 49 33.5 Q 46.9 41.9 40.5 46 Q 36.5 49.5 27.5 48 L 19 41.5 Q 14.8 37.7 16 28.5 Q 18.3 21.8 23.5 18 L 27.5 16 Z M 29 21 L 27 22 L 21 29 L 22 38 L 29 43 Q 36 44 40 41 L 43 37 Q 45 28 41 25 Q 38 20 29 21 Z " />
</svg>