<svg viewBox="0 0 512 512" version="1.1" xmlns="http://www.w3.org/2000/svg">
    <path fill="rgb(0,0,0)" stroke="rgb(0,0,0)" stroke-width="1" opacity="0"
        d="M 0 0 L 161 0.5 L 128.5 2 L 108.5 6 L 76.5 18 L 53 33.5 L 50.5 37 L 48.5 37 L 38 47.5 L 34 55 L 31 56.5 L 18 77.5 L 18 80.5 L 9 101.5 L 5 117.5 L 4 129.5 L 3 130.5 L 3 140.5 L 2 141.5 L 2 161.5 L 1 162.5 L 0.5 224 L 0 0 Z " />
    <path fill="rgb(0,0,0)" stroke="rgb(0,0,0)" stroke-width="1" opacity="0"
        d="M 357.5 0 L 512 0 L 512 134.5 L 511 134.5 L 511 127.5 L 506 103.5 L 496 77.5 L 485 58.5 L 465.5 37 L 440.5 19 L 435.5 18 L 421.5 11 L 396.5 4 L 384.5 3 L 383.5 2 L 372.5 2 L 371.5 1 L 357.5 1 L 357.5 0 Z " />
    <path fill="rgb(0,0,0)" stroke="rgb(0,0,0)" stroke-width="1" opacity="0"
        d="M 182.5 47 L 329.5 47 L 330.5 48 L 370.5 49 L 371.5 50 L 385.5 51 L 398.5 55 L 403.5 55 L 424 65 Q 422.9 67.7 425.5 67 L 441 80.5 L 451 94.5 L 459 112.5 L 459 118.5 L 461 123.5 L 463 140.5 L 464 141.5 L 464 153.5 L 465 154.5 L 465 231.5 L 466 232.5 L 466 328.5 L 465 329.5 L 464 370.5 L 463 371.5 L 462 384.5 L 459 394.5 L 459 399.5 L 449 420.5 L 433.5 439 L 421.5 448 L 403.5 457 L 397.5 457 L 384.5 461 L 370.5 462 L 369.5 463 L 354.5 463 L 353.5 464 L 271.5 464 L 270.5 465 L 193.5 465 L 192.5 464 L 144.5 463 L 143.5 462 L 134.5 462 L 123.5 460 L 115.5 457 L 110.5 457 L 89.5 446 L 72 430.5 L 64 418.5 L 56 401.5 L 53 390.5 L 53 383.5 L 50 366.5 L 50 343.5 L 49 342.5 L 49 171.5 L 50 170.5 L 51 137.5 L 52 136.5 L 53 121.5 L 55 113.5 L 63 95.5 L 73 80.5 L 80.5 73 L 83.5 72 L 92.5 64 L 110.5 55 L 115.5 55 L 123.5 52 L 141.5 50 L 142.5 49 L 181.5 48 L 182.5 47 Z M 391 88 L 374 94 L 365 106 L 362 115 Q 361 132 370 141 L 376 146 L 391 151 L 403 150 L 414 145 L 421 137 L 424 131 Q 422 124 425 123 L 424 109 L 419 100 Q 411 88 391 88 Z M 249 124 L 248 125 L 233 126 L 228 128 L 221 128 L 205 134 L 180 148 L 161 165 L 148 182 Q 149 184 146 183 L 136 203 L 129 222 L 125 244 L 125 269 L 129 291 L 134 305 L 146 328 Q 145 330 148 329 L 150 334 L 159 344 L 160 347 L 176 360 Q 178 359 177 362 L 196 373 L 213 381 L 222 384 L 229 384 L 234 386 L 249 387 L 250 388 L 275 387 L 297 383 Q 317 376 334 364 Q 336 365 335 362 L 351 350 L 370 327 L 379 309 L 388 281 L 388 269 L 389 268 L 389 245 L 388 244 L 388 232 L 386 223 L 380 206 L 370 186 L 356 168 L 334 147 L 308 133 L 294 128 L 288 128 L 276 125 L 249 124 Z " />
    <path fill="rgb(0,0,0)" stroke="rgb(0,0,0)" stroke-width="1" opacity="0"
        d="M 251.5 171 L 270.5 172 L 282.5 175 L 300.5 183 L 318 197.5 L 320.5 201 L 323 202.5 L 335 221.5 L 341 243.5 L 342 258.5 L 341 259.5 L 340 273.5 L 335 290.5 Q 326.3 307.8 312.5 320 L 301.5 328 L 281.5 337 L 268.5 340 L 246.5 340 L 232.5 337 L 216.5 329 L 213.5 329 L 192 309.5 L 180 291.5 L 177 283.5 L 173 262.5 L 173 249.5 L 177 227.5 L 179 222.5 L 188 207.5 L 197 196 L 213.5 183 L 235.5 174 L 251.5 171 Z " />
    <path fill="rgb(0,0,0)" stroke="rgb(0,0,0)" stroke-width="1" opacity="0"
        d="M 0.5 312 L 2 368.5 L 3 369.5 L 3 379.5 L 4 380.5 L 5 392.5 L 9 409.5 L 17 428.5 L 18 434.5 L 27 449.5 L 35 458.5 L 36 461.5 L 49.5 475 L 53 476 L 55.5 480 L 76.5 494 L 79.5 494 L 91.5 500 L 106.5 505 L 132.5 510 L 156 511.5 L 0 512 L 0.5 312 Z " />
    <path fill="rgb(0,0,0)" stroke="rgb(0,0,0)" stroke-width="1" opacity="0"
        d="M 511.5 375 L 512 512 L 363 511.5 L 376.5 511 L 377.5 510 L 396.5 508 L 421.5 501 L 435.5 494 L 440.5 493 L 451.5 486 L 462.5 476 L 465.5 475 L 477 463.5 L 491 444.5 L 503 418.5 L 510 391.5 L 511.5 375 Z " />
    <path fill="#e0e0e0" stroke="#e0e0e0" stroke-width="1"
        opacity="0.996078431372549"
        d="M 198.5 0 L 322.5 0 L 323.5 1 L 353.5 1 L 354.5 2 L 369.5 2 L 370.5 3 L 389.5 4 L 425.5 13 Q 449.9 23.6 468 40.5 L 472.5 46 L 476 48.5 Q 491.7 66.3 501 90.5 L 507 112.5 L 510 129.5 L 510 136.5 L 511 137.5 L 511 150.5 L 512 151.5 L 512 358.5 L 511 359.5 L 511 372.5 L 510 373.5 L 510 382.5 L 509 383.5 L 508 395.5 L 501 421.5 Q 491 447.5 473.5 466 L 468 470.5 L 464.5 475 Q 448.2 488.7 427.5 498 L 408.5 504 L 383.5 509 L 360.5 510 L 359.5 511 L 158.5 511 L 157.5 510 L 143.5 510 L 142.5 509 L 121.5 507 L 96.5 501 L 85.5 497 Q 57.3 484.3 38 462.5 Q 26.4 448.6 18 431.5 L 11 413.5 L 11 409.5 L 6 391.5 L 5 378.5 L 4 377.5 L 4 367.5 L 3 366.5 L 3 347.5 L 2 346.5 L 1 249.5 L 2 248.5 L 2 166.5 L 3 165.5 L 3 143.5 L 4 142.5 L 4 132.5 L 8 109.5 Q 18.9 66.4 46.5 40 L 64.5 26 L 84.5 15 L 109.5 7 L 130.5 3 L 140.5 3 L 141.5 2 L 197.5 1 L 198.5 0 Z M 180 46 L 179 47 L 154 47 L 153 48 L 142 48 L 141 49 L 128 50 Q 101 56 83 70 Q 71 80 63 94 L 56 110 L 52 124 L 51 135 L 50 136 L 50 147 L 49 148 L 49 166 L 48 167 L 48 227 L 47 228 L 47 246 L 48 247 L 48 348 L 49 349 L 49 369 L 50 370 L 52 389 L 56 403 L 64 421 L 71 431 Q 80 442 93 449 L 116 459 L 143 464 L 189 465 L 190 466 L 279 466 L 280 465 L 356 465 L 357 464 L 371 464 L 372 463 L 390 461 L 407 456 Q 424 450 435 439 Q 434 436 437 437 L 438 435 L 442 432 L 452 418 L 462 391 L 464 374 L 465 373 L 466 335 L 467 334 L 467 215 L 466 214 L 466 152 L 465 151 L 465 141 L 464 140 L 464 133 L 462 123 L 458 109 L 451 93 L 444 83 Q 434 70 421 62 L 399 53 L 381 49 L 361 48 L 360 47 L 334 47 L 333 46 L 180 46 Z " />
    <path fill="#e0e0e0" stroke="#e0e0e0" stroke-width="1"
        opacity="0.996078431372549"
        d="M 386.5 89 L 400.5 89 L 410.5 93 L 416 97 Q 421.3 102.9 424 112.5 L 424 126.5 Q 420.7 138.7 411.5 145 L 400.5 150 L 386.5 150 Q 374.6 145.9 368 136.5 L 364 128.5 L 363 115.5 Q 365 102.5 373.5 96 L 386.5 89 Z " />
    <path fill="#e0e0e0" stroke="#e0e0e0" stroke-width="1"
        opacity="0.996078431372549"
        d="M 253.5 124 L 280.5 126 L 309.5 135 Q 335.1 146.4 353 165.5 Q 370.3 183.3 380 208.5 L 385 223.5 L 388 238.5 L 389 264.5 L 384 291.5 L 376 313.5 Q 362.6 339.1 341.5 357 Q 323.5 372.5 298.5 381 L 279.5 386 L 254.5 388 L 253.5 387 L 241.5 387 L 222.5 383 L 196.5 373 Q 176.4 361.6 161 345.5 Q 145.2 328.3 135 305.5 L 127 275.5 Q 128.7 269.3 126 267.5 L 126 244.5 L 127 243.5 L 127 236.5 L 129 226.5 L 135 206.5 L 140 195.5 Q 152.3 173.3 170.5 157 L 190.5 142 L 212.5 132 L 234.5 126 L 252.5 125 L 253.5 124 Z M 249 171 L 248 172 L 240 172 L 224 177 L 201 192 Q 190 201 183 214 L 175 233 L 172 248 L 172 264 L 176 283 Q 181 297 190 309 Q 201 322 217 331 L 233 338 L 241 340 L 251 340 L 252 341 L 263 341 L 264 340 L 279 339 Q 298 333 312 322 L 329 303 L 339 282 L 343 261 L 342 243 L 340 234 Q 335 216 325 204 Q 311 186 289 176 L 276 172 L 249 171 Z " />
    <path fill="#e0e0e0" stroke="#e0e0e0" stroke-width="1"
        opacity="0.23921568627450981"
        d="M 161.5 0 L 198 0.5 L 164.5 1 L 163.5 2 L 130.5 3 L 113.5 6 L 96.5 11 L 96.5 10 L 108.5 6 L 128.5 2 L 160.5 1 L 161.5 0 Z " />
    <path fill="#e0e0e0" stroke="#e0e0e0" stroke-width="1"
        opacity="0.23921568627450981"
        d="M 323.5 0 L 356.5 0 L 357.5 1 L 383.5 2 L 384.5 3 L 401.5 5 L 419 10.5 L 416.5 11 L 400.5 6 L 382.5 4 L 381.5 3 L 354.5 2 L 353.5 1 L 323.5 1 L 323.5 0 Z " />
    <path fill="#e0e0e0" stroke="#e0e0e0" stroke-width="1"
        opacity="0.23921568627450981"
        d="M 81.5 16 L 83 16.5 Q 66.3 23.3 53.5 34 L 54.5 32 Q 66 22 81.5 16 Z " />
    <path fill="#e0e0e0" stroke="#e0e0e0" stroke-width="1"
        opacity="0.23921568627450981"
        d="M 436.5 18 L 440.5 19 L 459 32.5 L 455.5 30 L 436.5 19 L 436.5 18 Z " />
    <path fill="#e0e0e0" stroke="#e0e0e0" stroke-width="1"
        opacity="0.23921568627450981"
        d="M 463.5 36 L 477 48.5 L 479 51.5 L 476 49.5 L 473.5 46 L 468 41.5 L 465.5 38 L 463.5 36 Z " />
    <path fill="#e0e0e0" stroke="#e0e0e0" stroke-width="1"
        opacity="0.23921568627450981"
        d="M 48.5 37 L 50 37.5 L 42 44.5 L 35.5 52 L 38 48.5 L 48.5 37 Z " />
    <path fill="#e0e0e0" stroke="#e0e0e0" stroke-width="1"
        opacity="0.23921568627450981"
        d="M 179.5 46 L 332.5 46 L 333.5 47 L 359.5 47 L 360.5 48 L 372.5 48 L 373.5 49 L 386.5 50 L 402 54.5 L 398.5 55 L 385.5 51 L 371.5 50 L 370.5 49 L 357.5 49 L 356.5 48 L 330.5 48 L 329.5 47 L 182.5 47 L 181.5 48 L 142.5 49 L 112.5 55 L 112.5 54 L 127.5 50 L 140.5 49 L 141.5 48 L 178.5 47 L 179.5 46 Z " />
    <path fill="#e0e0e0" stroke="#e0e0e0" stroke-width="1"
        opacity="0.23921568627450981" d="M 32.5 55 L 32 56.5 L 29.5 60 L 31 57.5 L 32.5 55 Z " />
    <path fill="#e0e0e0" stroke="#e0e0e0" stroke-width="1"
        opacity="0.23921568627450981"
        d="M 481.5 55 Q 491 64.5 496 78.5 L 495 78.5 L 491 69.5 L 481.5 55 Z " />
    <path fill="#e0e0e0" stroke="#e0e0e0" stroke-width="1"
        opacity="0.23921568627450981"
        d="M 102.5 58 L 104 58.5 L 89.5 66 L 73 80.5 L 60.5 101 L 60 99.5 Q 68.3 81.8 82.5 70 L 102.5 58 Z " />
    <path fill="#e0e0e0" stroke="#e0e0e0" stroke-width="1"
        opacity="0.23921568627450981" d="M 28.5 61 L 28 62.5 L 18.5 80 L 18 77.5 L 28.5 61 Z " />
    <path fill="#e0e0e0" stroke="#e0e0e0" stroke-width="1"
        opacity="0.23921568627450981"
        d="M 419.5 62 Q 434.6 69.4 444 82.5 L 453 97.5 L 452 97.5 Q 445.1 82.9 433.5 73 L 424 67 Q 425.1 64.3 422.5 65 L 419.5 62 Z " />
    <path fill="#e0e0e0" stroke="#e0e0e0" stroke-width="1"
        opacity="0.23921568627450981" d="M 390.5 88 L 397 88.5 L 390.5 89 L 390.5 88 Z " />
    <path fill="#e0e0e0" stroke="#e0e0e0" stroke-width="1"
        opacity="0.23921568627450981"
        d="M 379.5 91 L 381 91.5 L 370 99.5 L 367.5 103 L 369 100.5 L 373.5 94 L 379.5 91 Z " />
    <path fill="#e0e0e0" stroke="#e0e0e0" stroke-width="1"
        opacity="0.23921568627450981"
        d="M 407.5 91 Q 414.9 93.6 419 99.5 L 424 108.5 L 424 111.5 L 423 111.5 L 422 106.5 L 416 97 L 407.5 92 L 407.5 91 Z " />
    <path fill="#e0e0e0" stroke="#e0e0e0" stroke-width="1"
        opacity="0.23921568627450981"
        d="M 501.5 91 L 509 115.5 L 511 134.5 L 512 135.5 L 512 150.5 L 511 150.5 L 511 137.5 L 510 136.5 L 509 122.5 L 504 100.5 L 501 93.5 L 501.5 91 Z " />
    <path fill="#e0e0e0" stroke="#e0e0e0" stroke-width="1"
        opacity="0.23921568627450981"
        d="M 10.5 98 L 11 101.5 L 9 105.5 L 5 124.5 L 4 142.5 L 3 143.5 L 1 300.5 L 2 301.5 L 3 366.5 L 4 367.5 L 4 377.5 L 5 378.5 L 6 391.5 L 11 412.5 L 10 412.5 L 5 392.5 L 4 380.5 L 3 379.5 L 3 369.5 L 2 368.5 L 1 312.5 L 0 311.5 L 0 224.5 L 1 223.5 L 1 162.5 L 2 161.5 L 2 141.5 L 3 140.5 L 3 130.5 L 4 129.5 L 5 117.5 L 10.5 98 Z " />
    <path fill="#e0e0e0" stroke="#e0e0e0" stroke-width="1"
        opacity="0.23921568627450981"
        d="M 366.5 104 L 366 105.5 L 365.5 107 L 365 105.5 L 366.5 104 Z " />
    <path fill="#e0e0e0" stroke="#e0e0e0" stroke-width="1"
        opacity="0.23921568627450981"
        d="M 363.5 110 L 364 114.5 Q 361.3 116.3 363 122.5 L 364 127.5 L 363 127.5 L 362 114.5 L 363.5 110 Z " />
    <path fill="#e0e0e0" stroke="#e0e0e0" stroke-width="1"
        opacity="0.23921568627450981"
        d="M 459.5 115 L 464 132.5 L 465 150.5 L 466 151.5 L 467 333.5 L 466 334.5 L 465 372.5 L 464 373.5 L 462 390.5 L 459.5 398 L 459 394.5 L 463 378.5 L 464 358.5 L 465 357.5 L 465 329.5 L 466 328.5 L 466 232.5 L 465 231.5 L 465 154.5 L 464 153.5 L 463 134.5 L 459 118.5 L 459.5 115 Z " />
    <path fill="#e0e0e0" stroke="#e0e0e0" stroke-width="1"
        opacity="0.23921568627450981" d="M 424.5 116 L 425 122.5 L 424 122.5 L 424.5 116 Z " />
    <path fill="#e0e0e0" stroke="#e0e0e0" stroke-width="1"
        opacity="0.23921568627450981"
        d="M 52.5 123 L 53 128.5 L 51 137.5 L 50 170.5 L 49 171.5 L 49 342.5 L 50 343.5 L 50 366.5 L 51 367.5 L 53 388.5 L 52 388.5 L 50 369.5 L 49 368.5 L 49 348.5 L 48 347.5 L 48 246.5 L 47 245.5 L 47 227.5 L 48 226.5 L 48 166.5 L 49 165.5 L 49 147.5 L 50 146.5 L 50 135.5 L 52.5 123 Z " />
    <path fill="#e0e0e0" stroke="#e0e0e0" stroke-width="1"
        opacity="0.23921568627450981" d="M 248.5 124 L 253 124.5 L 248.5 125 L 248.5 124 Z " />
    <path fill="#e0e0e0" stroke="#e0e0e0" stroke-width="1"
        opacity="0.23921568627450981" d="M 262.5 124 L 266 124.5 L 262.5 125 L 262.5 124 Z " />
    <path fill="#e0e0e0" stroke="#e0e0e0" stroke-width="1"
        opacity="0.23921568627450981"
        d="M 423.5 127 L 424 130.5 Q 420.5 139.5 413.5 145 L 410.5 146 L 410.5 145 L 419 137.5 L 423.5 127 Z " />
    <path fill="#e0e0e0" stroke="#e0e0e0" stroke-width="1"
        opacity="0.23921568627450981"
        d="M 220.5 128 L 225 128.5 Q 207 132.5 193.5 141 L 194.5 139 L 220.5 128 Z " />
    <path fill="#e0e0e0" stroke="#e0e0e0" stroke-width="1"
        opacity="0.23921568627450981"
        d="M 290.5 128 Q 308.5 131.5 321 140.5 L 319.5 140 Q 306.9 132.6 290.5 129 L 290.5 128 Z " />
    <path fill="#e0e0e0" stroke="#e0e0e0" stroke-width="1"
        opacity="0.23921568627450981"
        d="M 366.5 134 L 376.5 145 L 379 146.5 L 377.5 146 L 375.5 146 L 370 140.5 L 366.5 134 Z " />
    <path fill="#e0e0e0" stroke="#e0e0e0" stroke-width="1"
        opacity="0.23921568627450981" d="M 324.5 142 L 325.5 144 L 324.5 142 Z " />
    <path fill="#e0e0e0" stroke="#e0e0e0" stroke-width="1"
        opacity="0.23921568627450981" d="M 188.5 143 L 187.5 145 L 188.5 143 Z " />
    <path fill="#e0e0e0" stroke="#e0e0e0" stroke-width="1"
        opacity="0.23921568627450981"
        d="M 327.5 144 L 333.5 147 L 356 167.5 L 371 188.5 L 369 187.5 Q 360.4 171.6 347.5 160 L 328.5 146 L 327.5 144 Z " />
    <path fill="#e0e0e0" stroke="#e0e0e0" stroke-width="1"
        opacity="0.23921568627450981"
        d="M 185.5 145 L 184.5 147 Q 169.2 156.2 158 169.5 L 141.5 194 L 141 191.5 L 146 183 Q 148.7 184.1 148 181.5 L 160.5 165 L 179.5 148 L 185.5 145 Z " />
    <path fill="#e0e0e0" stroke="#e0e0e0" stroke-width="1"
        opacity="0.23921568627450981" d="M 390.5 150 L 397 150.5 L 390.5 151 L 390.5 150 Z " />
    <path fill="#e0e0e0" stroke="#e0e0e0" stroke-width="1"
        opacity="0.23921568627450981" d="M 248.5 171 L 251 171.5 L 248.5 172 L 248.5 171 Z " />
    <path fill="#e0e0e0" stroke="#e0e0e0" stroke-width="1"
        opacity="0.23921568627450981" d="M 263.5 171 L 266 171.5 L 263.5 172 L 263.5 171 Z " />
    <path fill="#e0e0e0" stroke="#e0e0e0" stroke-width="1"
        opacity="0.23921568627450981"
        d="M 239.5 172 L 244 172.5 L 229.5 176 L 214.5 183 L 214.5 182 Q 224.9 174.9 239.5 172 Z " />
    <path fill="#e0e0e0" stroke="#e0e0e0" stroke-width="1"
        opacity="0.23921568627450981"
        d="M 271.5 172 Q 289.1 173.9 300 182.5 L 298.5 183 L 282.5 175 L 271.5 173 L 271.5 172 Z " />
    <path fill="#e0e0e0" stroke="#e0e0e0" stroke-width="1"
        opacity="0.23921568627450981"
        d="M 301.5 183 Q 315.4 191 325 203.5 L 330 211.5 L 328 210.5 L 321.5 201 L 318 198.5 L 310.5 190 L 302.5 185 L 301.5 183 Z " />
    <path fill="#e0e0e0" stroke="#e0e0e0" stroke-width="1"
        opacity="0.23921568627450981" d="M 211.5 184 L 210.5 186 L 211.5 184 Z " />
    <path fill="#e0e0e0" stroke="#e0e0e0" stroke-width="1"
        opacity="0.23921568627450981"
        d="M 208.5 186 L 206.5 189 L 197 196 L 183.5 215 L 183 213.5 Q 190.2 201.2 200.5 192 L 208.5 186 Z " />
    <path fill="#e0e0e0" stroke="#e0e0e0" stroke-width="1"
        opacity="0.23921568627450981" d="M 373.5 194 L 376 197.5 L 374 196.5 L 373.5 194 Z " />
    <path fill="#e0e0e0" stroke="#e0e0e0" stroke-width="1"
        opacity="0.23921568627450981"
        d="M 377.5 201 L 386 222.5 L 388 237.5 L 387 237.5 L 385 223.5 L 377.5 201 Z " />
    <path fill="#e0e0e0" stroke="#e0e0e0" stroke-width="1"
        opacity="0.23921568627450981"
        d="M 134.5 207 L 135 209.5 L 131 219.5 L 127 236.5 Q 128.7 242.7 126 244.5 L 126 267.5 L 127 268.5 L 127 275.5 L 129 285.5 L 135 304.5 L 134 304.5 L 129 290.5 L 126 275.5 Q 127.5 270 125 268.5 L 125 243.5 L 129 221.5 L 134.5 207 Z " />
    <path fill="#e0e0e0" stroke="#e0e0e0" stroke-width="1"
        opacity="0.23921568627450981" d="M 330.5 213 L 334 218.5 L 332 217.5 L 330.5 213 Z " />
    <path fill="#e0e0e0" stroke="#e0e0e0" stroke-width="1"
        opacity="0.23921568627450981"
        d="M 335.5 222 L 342 242.5 L 343 260.5 L 342 261.5 L 341 274.5 L 335.5 289 L 335 287.5 L 340 273.5 L 342 253.5 L 341 252.5 L 340 238.5 L 335 224.5 L 335.5 222 Z " />
    <path fill="#e0e0e0" stroke="#e0e0e0" stroke-width="1"
        opacity="0.23921568627450981"
        d="M 176.5 229 L 177 231.5 L 174 241.5 L 173 262.5 L 177 282.5 L 176 282.5 L 172 263.5 L 172 247.5 L 176.5 229 Z " />
    <path fill="#e0e0e0" stroke="#e0e0e0" stroke-width="1"
        opacity="0.23921568627450981" d="M 388.5 244 L 389 246.5 L 388 246.5 L 388.5 244 Z " />
    <path fill="#e0e0e0" stroke="#e0e0e0" stroke-width="1"
        opacity="0.23921568627450981" d="M 388.5 265 L 389 267.5 L 388 267.5 L 388.5 265 Z " />
    <path fill="#e0e0e0" stroke="#e0e0e0" stroke-width="1"
        opacity="0.23921568627450981"
        d="M 387.5 274 L 388 280.5 L 377.5 311 L 377 309.5 Q 384.9 294.4 387.5 274 Z " />
    <path fill="#e0e0e0" stroke="#e0e0e0" stroke-width="1"
        opacity="0.23921568627450981"
        d="M 182.5 295 Q 190.9 311.1 204.5 322 L 212 327.5 L 209.5 326 L 204.5 323 L 190 308.5 L 182.5 295 Z " />
    <path fill="#e0e0e0" stroke="#e0e0e0" stroke-width="1"
        opacity="0.23921568627450981"
        d="M 330.5 298 L 330 299.5 Q 323 313 311.5 322 Q 301 330.5 287.5 336 L 274.5 340 L 269.5 340 L 269.5 339 Q 300.8 333.8 318 314.5 L 330.5 298 Z " />
    <path fill="#e0e0e0" stroke="#e0e0e0" stroke-width="1"
        opacity="0.23921568627450981"
        d="M 141.5 318 Q 152 337.5 167.5 352 L 185 365.5 L 183.5 366 L 177 361.5 Q 177.8 359.3 175.5 360 L 160 347 L 159 343.5 L 150 333.5 L 148 329 Q 145.3 330.1 146 327.5 L 141 319.5 L 141.5 318 Z " />
    <path fill="#e0e0e0" stroke="#e0e0e0" stroke-width="1"
        opacity="0.23921568627450981"
        d="M 371.5 321 L 371 322.5 L 370 326.5 L 350.5 350 L 335 362 Q 336.1 364.7 333.5 364 L 325.5 369 L 326.5 367 Q 345.2 356.6 358 340.5 L 371.5 321 Z " />
    <path fill="#e0e0e0" stroke="#e0e0e0" stroke-width="1"
        opacity="0.23921568627450981"
        d="M 215.5 329 L 229.5 336 L 246 339.5 L 240.5 340 L 226.5 336 L 216.5 331 L 215.5 329 Z " />
    <path fill="#e0e0e0" stroke="#e0e0e0" stroke-width="1"
        opacity="0.23921568627450981" d="M 251.5 340 L 263 340.5 L 251.5 341 L 251.5 340 Z " />
    <path fill="#e0e0e0" stroke="#e0e0e0" stroke-width="1"
        opacity="0.23921568627450981"
        d="M 511.5 359 L 512 374.5 L 511 375.5 L 511 383.5 L 510 384.5 L 510 391.5 L 508 401.5 L 501.5 421 L 501 418.5 L 505 408.5 L 508 395.5 L 509 383.5 L 510 382.5 L 510 373.5 L 511 372.5 L 511.5 359 Z " />
    <path fill="#e0e0e0" stroke="#e0e0e0" stroke-width="1"
        opacity="0.23921568627450981" d="M 186.5 366 L 187.5 368 L 186.5 366 Z " />
    <path fill="#e0e0e0" stroke="#e0e0e0" stroke-width="1"
        opacity="0.23921568627450981"
        d="M 323.5 369 L 322.5 371 L 320.5 372 L 321.5 370 L 323.5 369 Z " />
    <path fill="#e0e0e0" stroke="#e0e0e0" stroke-width="1"
        opacity="0.23921568627450981"
        d="M 318.5 372 L 317.5 374 L 299.5 382 L 289.5 384 L 289.5 383 Q 306.1 379.6 318.5 372 Z " />
    <path fill="#e0e0e0" stroke="#e0e0e0" stroke-width="1"
        opacity="0.23921568627450981"
        d="M 197.5 373 Q 210 380 226 383.5 L 221.5 384 L 205.5 378 L 197.5 374 L 197.5 373 Z " />
    <path fill="#e0e0e0" stroke="#e0e0e0" stroke-width="1"
        opacity="0.23921568627450981" d="M 249.5 387 L 254 387.5 L 249.5 388 L 249.5 387 Z " />
    <path fill="#e0e0e0" stroke="#e0e0e0" stroke-width="1"
        opacity="0.23921568627450981" d="M 261.5 387 L 265 387.5 L 261.5 388 L 261.5 387 Z " />
    <path fill="#e0e0e0" stroke="#e0e0e0" stroke-width="1"
        opacity="0.23921568627450981"
        d="M 455.5 407 L 456 408.5 L 454.5 411 L 454 409.5 L 455.5 407 Z " />
    <path fill="#e0e0e0" stroke="#e0e0e0" stroke-width="1"
        opacity="0.23921568627450981"
        d="M 60.5 411 L 72 430.5 L 80.5 439 L 83.5 440 L 92.5 448 L 104 453.5 L 102.5 454 Q 83.4 445.6 71 430.5 Q 63.2 422.2 60.5 411 Z " />
    <path fill="#e0e0e0" stroke="#e0e0e0" stroke-width="1"
        opacity="0.23921568627450981"
        d="M 451.5 416 L 452 417.5 L 441.5 432 L 441 430.5 L 451.5 416 Z " />
    <path fill="#e0e0e0" stroke="#e0e0e0" stroke-width="1"
        opacity="0.23921568627450981"
        d="M 497.5 429 L 498 430.5 Q 491.9 445.9 481.5 457 L 484 453.5 L 497.5 429 Z " />
    <path fill="#e0e0e0" stroke="#e0e0e0" stroke-width="1"
        opacity="0.23921568627450981" d="M 18.5 432 L 33 455.5 L 30 453.5 L 19 436.5 L 18.5 432 Z " />
    <path fill="#e0e0e0" stroke="#e0e0e0" stroke-width="1"
        opacity="0.23921568627450981" d="M 437.5 435 L 436.5 437 L 437.5 435 Z " />
    <path fill="#e0e0e0" stroke="#e0e0e0" stroke-width="1"
        opacity="0.23921568627450981"
        d="M 434.5 438 L 431.5 442 L 417.5 451 L 418.5 449 L 434.5 438 Z " />
    <path fill="#e0e0e0" stroke="#e0e0e0" stroke-width="1"
        opacity="0.23921568627450981"
        d="M 112.5 457 L 134.5 462 L 161.5 463 L 162.5 464 L 270.5 465 L 271.5 464 L 353.5 464 L 354.5 463 L 369.5 463 L 370.5 462 L 384.5 461 L 400.5 457 L 400.5 458 L 378.5 463 L 356.5 464 L 355.5 465 L 189.5 466 L 188.5 465 L 160.5 465 L 159.5 464 L 133.5 463 L 115.5 459 L 112.5 458 L 112.5 457 Z " />
    <path fill="#e0e0e0" stroke="#e0e0e0" stroke-width="1"
        opacity="0.23921568627450981" d="M 35.5 459 L 50 474.5 L 36 461.5 L 35.5 459 Z " />
    <path fill="#e0e0e0" stroke="#e0e0e0" stroke-width="1"
        opacity="0.23921568627450981"
        d="M 477.5 461 L 477 462.5 L 465.5 475 L 468 471.5 L 472.5 466 L 475 464.5 L 477.5 461 Z " />
    <path fill="#e0e0e0" stroke="#e0e0e0" stroke-width="1"
        opacity="0.23921568627450981"
        d="M 53.5 477 Q 64.6 486.9 79 493.5 L 76.5 494 L 55.5 480 L 53.5 477 Z " />
    <path fill="#e0e0e0" stroke="#e0e0e0" stroke-width="1"
        opacity="0.23921568627450981"
        d="M 457.5 480 L 455.5 483 L 440.5 493 L 436.5 494 L 436.5 493 Q 448.5 488 457.5 480 Z " />
    <path fill="#e0e0e0" stroke="#e0e0e0" stroke-width="1"
        opacity="0.23921568627450981"
        d="M 97.5 501 L 127.5 508 L 142.5 509 L 143.5 510 L 157.5 510 L 158.5 511 L 359.5 511 L 360.5 510 L 374.5 510 L 375.5 509 L 383.5 509 L 384.5 508 L 395.5 507 L 418.5 501 L 418.5 502 L 396.5 508 L 377.5 510 L 376.5 511 L 363.5 511 L 362.5 512 L 156.5 512 L 155.5 511 L 142.5 511 L 141.5 510 L 125.5 509 L 106.5 505 L 97.5 502 L 97.5 501 Z " />
</svg>