<svg viewBox="0 0 64 64" version="1.1" xmlns="http://www.w3.org/2000/svg">
    <path fill="#e0e0e0" stroke="#e0e0e0" stroke-width="1"
        opacity="0.5058823529411764" d="M 60.5 1 L 61.5 3 L 60.5 1 Z " />
    <path fill="#e0e0e0" stroke="#e0e0e0" stroke-width="1"
        opacity="0.5058823529411764" d="M 34.5 24 L 35 26.5 L 34 26.5 L 34.5 24 Z " />
    <path fill="#e0e0e0" stroke="#e0e0e0" stroke-width="1"
        opacity="0.5058823529411764" d="M 50.5 25 L 51.5 27 L 50.5 25 Z " />
    <path fill="#e0e0e0" stroke="#e0e0e0" stroke-width="1"
        opacity="0.5058823529411764" d="M 54.5 35 L 55 53.5 L 54 53.5 L 54.5 35 Z " />
    <path fill="#e0e0e0" stroke="#e0e0e0" stroke-width="1"
        opacity="0.5058823529411764" d="M 34.5 38 L 35 54.5 L 34 54.5 L 34.5 38 Z " />
    <path fill="#e0e0e0" stroke="#e0e0e0" stroke-width="1"
        opacity="0.5058823529411764" d="M 61.5 61 L 60.5 63 L 61.5 61 Z " />
    <path fill="rgb(0,0,0)" stroke="rgb(0,0,0)" stroke-width="1" opacity="0"
        d="M 0 0 L 4 0.5 L 1 2.5 L 0.5 4 L 0 0 Z " />
    <path fill="rgb(0,0,0)" stroke="rgb(0,0,0)" stroke-width="1" opacity="0"
        d="M 60.5 0 Q 66.2 -1.8 64 4.5 L 63 4.5 L 60.5 0 Z " />
    <path fill="rgb(0,0,0)" stroke="rgb(0,0,0)" stroke-width="1" opacity="0"
        d="M 14.5 9 L 19 11.5 L 20 15.5 L 17.5 19 L 13.5 20 Q 9 19 10 12.5 L 11 10 L 14.5 9 Z " />
    <path fill="rgb(0,0,0)" stroke="rgb(0,0,0)" stroke-width="1" opacity="0"
        d="M 40.5 24 L 47.5 24 L 52 27.5 L 54 31.5 L 54 55 L 45 55 L 45 38.5 L 45 36.5 Q 45.5 32.5 42.5 32 L 39.5 31 L 35 33 L 34 35.5 L 34 55 L 26.5 55 L 26 54.5 L 26 25 L 33.5 25 L 34 27 L 35.5 27 L 40.5 24 Z " />
    <path fill="rgb(0,0,0)" stroke="rgb(0,0,0)" stroke-width="1" opacity="0"
        d="M 10 25 L 18.5 25 L 19 25.5 L 19 55 L 10.5 55 L 10 54.5 L 10 25 Z " />
    <path fill="rgb(0,0,0)" stroke="rgb(0,0,0)" stroke-width="1" opacity="0"
        d="M 63.5 59 L 64 64 L 60 63.5 L 62 63 L 63.5 59 Z " />
    <path fill="rgb(0,0,0)" stroke="rgb(0,0,0)" stroke-width="1" opacity="0"
        d="M 0.5 60 L 2.5 63 L 4 63.5 L 0 64 L 0.5 60 Z " />
    <path fill="#e0e0e0" stroke="#e0e0e0" stroke-width="1"
        opacity="0.996078431372549" d="M 18.5 9 L 19.5 11 L 18.5 9 Z " />
    <path fill="#e0e0e0" stroke="#e0e0e0" stroke-width="1"
        opacity="0.996078431372549" d="M 19.5 18 L 18.5 20 L 19.5 18 Z " />
    <path fill="#e0e0e0" stroke="#e0e0e0" stroke-width="1"
        opacity="0.996078431372549" d="M 9.5 24 L 10 55.5 L 9 55.5 L 9.5 24 Z " />
    <path fill="#e0e0e0" stroke="#e0e0e0" stroke-width="1"
        opacity="0.996078431372549" d="M 51.5 25 L 52.5 27 L 51.5 25 Z " />
    <path fill="#e0e0e0" stroke="#e0e0e0" stroke-width="1"
        opacity="0.996078431372549" d="M 42.5 33 L 43.5 35 L 42.5 33 Z " />
    <path fill="#e0e0e0" stroke="#e0e0e0" stroke-width="1"
        opacity="0.996078431372549" d="M 44.5 37 L 45 54.5 L 44 54.5 L 44.5 37 Z " />
    <path fill="#e0e0e0" stroke="#e0e0e0" stroke-width="1" opacity="1"
        d="M 6.5 0 L 57.5 0 L 60 1 L 60 3 Q 62.7 1.9 62 4.5 L 63 5.5 L 63 58.5 L 59.5 63 L 57.5 64 L 6.5 64 L 2 60.5 L 1 58.5 L 1 5.5 L 4.5 1 L 6.5 0 Z M 13 8 L 9 12 Q 8 20 13 21 L 19 20 L 21 17 L 20 11 Q 18 7 13 8 Z M 40 23 L 38 24 L 35 26 L 35 24 L 25 24 L 25 56 L 26 56 L 35 56 L 35 37 L 36 34 L 42 33 L 44 36 L 44 55 L 46 56 L 55 56 L 55 31 L 53 27 Q 50 21 40 23 Z M 9 24 L 9 56 L 20 56 L 20 24 L 9 24 Z " />
    <path fill="#e0e0e0" stroke="#e0e0e0" stroke-width="1"
        opacity="0.8392156862745098" d="M 13.5 8 L 16 8.5 L 13.5 9 L 13.5 8 Z " />
    <path fill="#e0e0e0" stroke="#e0e0e0" stroke-width="1"
        opacity="0.8392156862745098" d="M 11.5 9 L 10.5 11 L 11.5 9 Z " />
    <path fill="#e0e0e0" stroke="#e0e0e0" stroke-width="1"
        opacity="0.8392156862745098" d="M 10.5 18 L 11.5 20 L 10.5 18 Z " />
    <path fill="#e0e0e0" stroke="#e0e0e0" stroke-width="1"
        opacity="0.8392156862745098" d="M 13.5 20 L 17 20.5 L 13.5 21 L 13.5 20 Z " />
    <path fill="#e0e0e0" stroke="#e0e0e0" stroke-width="1"
        opacity="0.8392156862745098" d="M 36.5 25 L 35.5 27 L 36.5 25 Z " />
    <path fill="#e0e0e0" stroke="#e0e0e0" stroke-width="1"
        opacity="0.8392156862745098" d="M 38.5 32 L 42 32.5 L 38.5 33 L 38.5 32 Z " />
    <path fill="#e0e0e0" stroke="#e0e0e0" stroke-width="1"
        opacity="0.8392156862745098" d="M 10.5 55 L 19 55.5 L 10.5 56 L 10.5 55 Z " />
    <path fill="#e0e0e0" stroke="#e0e0e0" stroke-width="1"
        opacity="0.8392156862745098" d="M 26.5 55 L 34 55.5 L 26.5 56 L 26.5 55 Z " />
    <path fill="#e0e0e0" stroke="#e0e0e0" stroke-width="1"
        opacity="0.8392156862745098" d="M 45.5 55 L 54 55.5 L 45.5 56 L 45.5 55 Z " />
    <path fill="#e0e0e0" stroke="#e0e0e0" stroke-width="1" opacity="0.4"
        d="M 0.5 6 L 1 58.5 L 0 58.5 L 0.5 6 Z " />
    <path fill="#e0e0e0" stroke="#e0e0e0" stroke-width="1"
        opacity="0.1843137254901961" d="M 2.5 1 L 1.5 3 L 2.5 1 Z " />
    <path fill="#e0e0e0" stroke="#e0e0e0" stroke-width="1"
        opacity="0.1843137254901961" d="M 63.5 5 L 64 58.5 L 63 58.5 L 63.5 5 Z " />
    <path fill="#e0e0e0" stroke="#e0e0e0" stroke-width="1"
        opacity="0.1843137254901961" d="M 10.5 17 L 12.5 20 L 10.5 17 Z " />
    <path fill="#e0e0e0" stroke="#e0e0e0" stroke-width="1"
        opacity="0.1843137254901961" d="M 42.5 23 L 46 23.5 L 42.5 24 L 42.5 23 Z " />
    <path fill="#e0e0e0" stroke="#e0e0e0" stroke-width="1"
        opacity="0.1843137254901961" d="M 10.5 24 L 19 24.5 L 10.5 25 L 10.5 24 Z " />
    <path fill="#e0e0e0" stroke="#e0e0e0" stroke-width="1"
        opacity="0.1843137254901961" d="M 26.5 24 L 34 24.5 L 26.5 25 L 26.5 24 Z " />
    <path fill="#e0e0e0" stroke="#e0e0e0" stroke-width="1"
        opacity="0.1843137254901961" d="M 48.5 24 L 49.5 26 L 48.5 24 Z " />
    <path fill="#e0e0e0" stroke="#e0e0e0" stroke-width="1"
        opacity="0.1843137254901961" d="M 1.5 61 L 2.5 63 L 1.5 61 Z " />
    <path fill="#e0e0e0" stroke="#e0e0e0" stroke-width="1"
        opacity="0.3176470588235294" d="M 19.5 25 L 20 54.5 L 19 54.5 L 19.5 25 Z " />
    <path fill="#e0e0e0" stroke="#e0e0e0" stroke-width="1"
        opacity="0.3176470588235294" d="M 25.5 25 L 26 54.5 L 25 54.5 L 25.5 25 Z " />
</svg>