<svg version="1.0" xmlns="http://www.w3.org/2000/svg" viewBox="0 0 1024.000000 1024.000000"
    preserveAspectRatio="xMidYMid meet">
    <g transform="translate(0.000000,1024.000000) scale(0.100000,-0.100000)" fill="#f0f4ff"
        stroke="none">
        <path
            d="M0 5120 l0 -5120 5120 0 5120 0 0 5120 0 5120 -5120 0 -5120 0 0
            -5120z m3298 3194 l2 -492 -257 -5 c-275 -5 -349 -15 -448 -61 -74 -34 -130
            -88 -164 -160 -68 -145 -69 -224 -10 -841 66 -691 59 -921 -32 -1142 -60 -143
            -177 -278 -323 -371 l-76 -49 67 -39 c41 -23 107 -77 164 -134 83 -83 102
            -108 142 -190 70 -143 107 -335 107 -548 0 -49 -23 -348 -50 -663 -45 -509
            -49 -584 -40 -662 23 -192 85 -294 216 -354 98 -45 172 -55 447 -60 l257 -5
            -2 -492 -3 -491 -285 -3 c-455 -5 -688 20 -921 98 -138 46 -214 82 -328 158
            -257 170 -420 435 -476 777 -34 206 -31 309 30 1055 65 774 65 797 8 909 -59
            116 -160 151 -432 151 l-171 0 0 490 0 490 128 0 c241 0 377 32 441 106 16 18
            39 59 52 91 36 91 31 246 -30 873 -57 594 -64 792 -36 985 78 523 406 879 930
            1009 218 53 343 64 770 62 l320 -1 3 -491z m4409 485 c628 -52 1045 -335 1207
            -819 59 -177 71 -263 70 -530 0 -207 -6 -299 -53 -780 -57 -584 -60 -694 -25
            -795 23 -65 93 -134 161 -158 62 -22 198 -36 351 -37 l112 0 0 -489 0 -489
            -202 -4 c-236 -5 -289 -19 -362 -92 -99 -100 -102 -162 -37 -941 66 -801 64
            -770 51 -925 -30 -367 -133 -606 -350 -813 -114 -109 -242 -190 -384 -246
            -263 -103 -477 -131 -992 -131 l-304 0 0 495 0 495 203 0 c111 0 241 5 287 10
            181 22 298 81 358 180 86 144 88 232 27 915 -42 464 -46 539 -41 700 7 251 40
            392 127 538 55 93 174 210 271 267 l77 44 -67 40 c-102 60 -248 212 -299 311
            -79 153 -113 320 -113 558 0 70 20 352 45 629 25 276 45 545 45 598 0 203 -66
            347 -189 413 -104 57 -181 69 -468 74 l-263 5 0 494 0 494 314 0 c173 0 373
            -5 443 -11z m-2135 -1757 c261 -60 450 -157 620 -320 146 -141 243 -304 296
            -500 24 -89 26 -114 26 -292 0 -168 -3 -207 -22 -282 -46 -183 -116 -321 -235
            -461 -140 -163 -373 -298 -624 -362 -52 -13 -97 -25 -98 -27 -2 -2 275 -369
            616 -816 340 -447 619 -815 619 -817 0 -3 -231 -5 -512 -5 l-513 1 -580 804
            -580 804 -47 0 -48 1 0 -805 0 -805 -435 0 -435 0 0 1955 0 1956 928 -4 c914
            -3 928 -3 1024 -25z" />
        <path
            d="M4490 5910 l0 -491 383 3 c334 4 389 7 437 22 167 55 273 152 321
            293 32 93 32 251 0 337 -55 153 -157 248 -321 302 -48 15 -103 18 -437 22
            l-383 3 0 -491z" />
    </g>
</svg>